<svg width="57" height="57" viewBox="0 0 57 57" fill="none" xmlns="http://www.w3.org/2000/svg">
<path d="M52.25 0H4.75004C2.12793 0.00311719 0.00311719 2.12793 0 4.75004V52.2501C0.00311719 54.8721 2.12793 56.9969 4.75004 57H52.2501C54.8721 56.9969 56.9969 54.8721 57.0001 52.25V4.75004C56.9969 2.12793 54.8721 0.00311719 52.25 0ZM55.1 52.25C55.1 53.8239 53.824 55.1 52.25 55.1H4.75004C3.17608 55.1 1.90004 53.824 1.90004 52.25V9.49996H55.1001V52.25H55.1ZM55.1 7.60004H1.90004V4.75004C1.90004 3.17608 3.17608 1.90004 4.75004 1.90004H52.2501C53.824 1.90004 55.1001 3.17608 55.1001 4.75004V7.60004H55.1Z" fill="#8C63A9"/>
<path d="M6.64993 3.7998H5.69996C5.17527 3.7998 4.75 4.22508 4.75 4.74977C4.75 5.27446 5.17527 5.69984 5.69996 5.69984H6.64993C7.17462 5.69984 7.59989 5.27457 7.59989 4.74988C7.59989 4.22519 7.17462 3.7998 6.64993 3.7998Z" fill="#8C63A9"/>
<path d="M10.811 3.87625C10.5817 3.77172 10.3183 3.77172 10.089 3.87625C9.97392 3.92446 9.86794 3.99192 9.77554 4.07575C9.40815 4.45037 9.40815 5.0501 9.77554 5.42472C9.86794 5.50855 9.97392 5.57601 10.089 5.62422C10.319 5.72553 10.581 5.72553 10.811 5.62422C10.9261 5.57601 11.0321 5.50855 11.1245 5.42472C11.4919 5.0501 11.4919 4.45037 11.1245 4.07575C11.0321 3.99192 10.9261 3.92446 10.811 3.87625Z" fill="#8C63A9"/>
<path d="M14.6142 3.86659C14.2577 3.71863 13.8471 3.8009 13.5754 4.07499C13.4915 4.16739 13.4241 4.27338 13.3759 4.38849C13.2744 4.6185 13.2744 4.88045 13.3759 5.11045C13.4241 5.22557 13.4915 5.33155 13.5754 5.42395C13.95 5.79134 14.5497 5.79134 14.9243 5.42395C15.0082 5.33155 15.0756 5.22557 15.1238 5.11045C15.177 4.99768 15.2031 4.87411 15.1999 4.74942C15.2022 4.36355 14.9706 4.01454 14.6142 3.86659Z" fill="#8C63A9"/>
<path d="M51.3002 3.7998H19.0003C18.4756 3.7998 18.0503 4.22508 18.0503 4.74977C18.0503 5.27446 18.4756 5.69973 19.0003 5.69973H51.3002C51.8249 5.69973 52.2502 5.27446 52.2502 4.74977C52.2502 4.22508 51.8249 3.7998 51.3002 3.7998Z" fill="#8C63A9"/>
<path d="M14.5853 45.2389C14.6285 45.2786 14.6756 45.314 14.7259 45.3443C18.3019 49.1462 23.2901 51.3015 28.5095 51.2998C33.7289 51.2982 38.7156 49.1398 42.2892 45.3358C42.3364 45.3083 42.3809 45.2764 42.4222 45.2408C42.4534 45.197 42.4808 45.1506 42.504 45.1021C49.1705 37.8705 49.1705 26.733 42.504 19.5015L42.5002 19.4996C42.477 19.4511 42.4496 19.4047 42.4185 19.3609C42.3752 19.3206 42.3277 19.285 42.277 19.2545C38.7025 15.4557 33.7181 13.3018 28.502 13.3018C23.2859 13.3018 18.3014 15.4557 14.727 19.2545C14.6763 19.2849 14.6288 19.3206 14.5855 19.3609C14.5544 19.4047 14.527 19.4511 14.5038 19.4996C7.83727 26.7312 7.83727 37.8686 14.5038 45.1002C14.5269 45.1487 14.5541 45.1951 14.5853 45.2389ZM33.6822 48.5895C35.1425 46.826 36.2416 44.7924 36.917 42.6045V42.6016C38.1104 43.1607 39.2364 43.8535 40.2733 44.6669C38.4016 46.4567 36.1479 47.798 33.6822 48.5895ZM41.5844 43.2867C40.3201 42.2725 38.9329 41.4218 37.4557 40.7549C38.0666 38.2983 38.4003 35.7809 38.4503 33.25H45.5516C45.3541 36.9375 43.9615 40.4606 41.5844 43.2867ZM45.5516 31.3499H38.4503C38.4002 28.819 38.0665 26.3015 37.4557 23.845C38.9328 23.1787 40.32 22.3287 41.5844 21.3152C43.9611 24.1407 45.3536 27.663 45.5516 31.3499ZM40.2734 19.93C39.2365 20.7434 38.1105 21.4363 36.9171 21.9953C36.2421 19.8064 35.1429 17.7718 33.6823 16.0074C36.1479 16.799 38.4016 18.1403 40.2734 19.93ZM29.45 15.3329C31.7784 15.9428 33.838 18.7425 35.1357 22.7059C33.3024 23.338 31.3874 23.7024 29.45 23.7879V15.3329ZM29.45 25.6889C31.5637 25.6097 33.6552 25.2259 35.6592 24.5489C36.1981 26.7776 36.4971 29.0576 36.5512 31.3499H29.45V25.6889ZM29.45 33.25H36.5512C36.497 35.5417 36.198 37.821 35.6592 40.0491C33.655 39.3728 31.5637 38.9895 29.45 38.911V33.25ZM29.45 40.8119C31.3874 40.8978 33.3024 41.2625 35.1357 41.8949C33.838 45.8583 31.7784 48.658 29.45 49.2679V40.8119ZM16.7266 44.6642C17.7638 43.8529 18.8898 43.1619 20.0829 42.6047V42.6018C20.7582 44.7896 21.8574 46.8232 23.3177 48.5868C20.8521 47.7952 18.5984 46.4539 16.7266 44.6642ZM27.55 49.267C25.2216 48.6571 23.162 45.8574 21.8643 41.894C23.6976 41.2619 25.6126 40.8975 27.55 40.812V49.267ZM27.55 38.911C25.4362 38.9902 23.3449 39.374 21.3408 40.051C20.8019 37.8222 20.5028 35.5423 20.4487 33.25H27.55V38.911ZM27.55 31.3499H20.4487C20.503 29.0582 20.802 26.7789 21.3408 24.5508C23.3449 25.2271 25.4362 25.6104 27.55 25.6889V31.3499ZM27.55 15.3319V23.7879C25.6126 23.702 23.6976 23.3373 21.8643 22.7049C23.1619 18.7416 25.2215 15.9419 27.55 15.3319ZM23.3178 16.0046C21.8568 17.7698 20.7577 19.8054 20.083 21.9953V21.9924C18.8896 21.4333 17.7636 20.7405 16.7267 19.927C18.5984 18.1374 20.8521 16.7961 23.3178 16.0046ZM15.4156 21.3132C16.6798 22.3274 18.0671 23.178 19.5443 23.8449C18.9333 26.3015 18.5997 28.8189 18.5497 31.3498H11.4484C11.6459 27.6623 13.0385 24.1392 15.4156 21.3132ZM18.5497 33.25C18.5998 35.7809 18.9335 38.2984 19.5443 40.7549C18.0672 41.4212 16.68 42.2712 15.4156 43.2848C13.0389 40.4592 11.6464 36.9368 11.4484 33.2499H18.5497V33.25Z" fill="#8C63A9"/>
</svg>
