<svg width="70" height="70" viewBox="0 0 70 70" fill="none" xmlns="http://www.w3.org/2000/svg">
<path d="M62.7814 34.1485C62.5535 34.1483 62.3334 34.0657 62.1615 33.9161C61.9896 33.7664 61.8775 33.5598 61.8459 33.3341C61.7314 32.5158 61.5621 31.6314 61.3228 30.6296C61.2683 30.3867 61.3117 30.1321 61.4437 29.9211C61.5756 29.71 61.7855 29.5594 62.0277 29.502C62.2699 29.4447 62.525 29.4851 62.7376 29.6145C62.9503 29.744 63.1033 29.952 63.1636 30.1936C63.4152 31.253 63.5959 32.1942 63.7188 33.0711C63.7536 33.3195 63.6884 33.5715 63.5374 33.7718C63.3865 33.972 63.1622 34.1041 62.9138 34.1391C62.87 34.1455 62.8257 34.1487 62.7814 34.1485Z" fill="#8C63A9"/>
<path d="M54.1268 17.2726C53.8793 17.2728 53.6416 17.176 53.4647 17.003C51.7505 15.3273 49.8311 13.8754 47.7521 12.6819C47.6444 12.6198 47.55 12.5371 47.4742 12.4385C47.3985 12.3399 47.3429 12.2273 47.3107 12.1073C47.2785 11.9872 47.2702 11.8619 47.2864 11.7387C47.3025 11.6154 47.3428 11.4965 47.4049 11.3888C47.467 11.2811 47.5498 11.1867 47.6484 11.111C47.747 11.0352 47.8595 10.9797 47.9796 10.9474C48.0997 10.9152 48.2249 10.9069 48.3482 10.9231C48.4715 10.9392 48.5903 10.9795 48.698 11.0416C50.9154 12.3145 52.9626 13.863 54.7909 15.6503C54.9253 15.7818 55.0176 15.9504 55.0558 16.1345C55.094 16.3186 55.0764 16.51 55.0053 16.6841C54.9343 16.8582 54.8129 17.0072 54.6568 17.112C54.5006 17.2169 54.3168 17.2728 54.1287 17.2726H54.1268Z" fill="#8C63A9"/>
<path d="M59.9356 25.1437C59.7611 25.144 59.5899 25.096 59.441 25.005C59.2921 24.914 59.1712 24.7836 59.0918 24.6282C58.6993 23.8591 58.2603 23.091 57.7514 22.2785C57.6182 22.0652 57.5752 21.8078 57.6317 21.5628C57.6883 21.3178 57.8399 21.1053 58.0532 20.9721C58.2664 20.8389 58.5239 20.7959 58.7689 20.8525C59.0138 20.909 59.2263 21.0606 59.3595 21.2739C59.8968 22.1337 60.3622 22.9492 60.7784 23.7674C60.8521 23.9115 60.8875 24.0721 60.8813 24.2338C60.8752 24.3955 60.8277 24.5529 60.7433 24.691C60.6589 24.8291 60.5405 24.9432 60.3995 25.0225C60.2584 25.1018 60.0993 25.1435 59.9375 25.1437H59.9356Z" fill="#8C63A9"/>
<path d="M59.1391 53.3042C58.9728 53.3043 58.8095 53.2599 58.6661 53.1756C58.4494 53.0494 58.2917 52.8422 58.2276 52.5997C58.1636 52.3572 58.1985 52.0993 58.3246 51.8825C60.4297 48.2731 61.7021 44.2392 62.0488 40.0752C62.0703 39.8252 62.1901 39.5939 62.3821 39.4323C62.574 39.2707 62.8223 39.192 63.0723 39.2134C63.3223 39.2349 63.5536 39.3548 63.7152 39.5467C63.8768 39.7387 63.9555 39.9869 63.9341 40.2369C63.5645 44.6795 62.2071 48.9833 59.9611 52.8341C59.8775 52.9778 59.7575 53.0969 59.6132 53.1794C59.4688 53.262 59.3053 53.305 59.1391 53.3042Z" fill="#8C63A9"/>
<path d="M33.4968 68.1084C28.1352 68.0979 22.8701 66.682 18.2264 64.002C13.5826 61.3219 9.72261 57.4714 7.03115 52.8342C6.96453 52.7266 6.92021 52.6066 6.90081 52.4815C6.88142 52.3563 6.88734 52.2286 6.91823 52.1058C6.94912 51.983 7.00436 51.8676 7.08065 51.7666C7.15695 51.6655 7.25276 51.5808 7.36241 51.5175C7.47205 51.4541 7.59329 51.4135 7.71895 51.3978C7.84461 51.3822 7.97213 51.392 8.09394 51.4266C8.21575 51.4612 8.32938 51.5199 8.42809 51.5992C8.5268 51.6785 8.60858 51.7768 8.66858 51.8883C11.1936 56.2383 14.8149 59.8505 19.1713 62.3645C23.5277 64.8786 28.467 66.2067 33.4968 66.2165C39.3914 66.2282 45.1443 64.4103 49.962 61.0138C50.1672 60.8695 50.4214 60.8125 50.6686 60.8555C50.9158 60.8986 51.1358 61.038 51.2801 61.2432C51.4245 61.4485 51.4815 61.7026 51.4384 61.9498C51.3954 62.197 51.256 62.417 51.0507 62.5614C45.9144 66.1824 39.7812 68.1205 33.4968 68.1084Z" fill="#8C63A9"/>
<path d="M3.95631 40.5403C3.71634 40.5409 3.48512 40.4503 3.30949 40.2867C3.13385 40.1232 3.02693 39.8991 3.01037 39.6597C2.96213 38.9616 2.93848 38.2531 2.93848 37.5521C2.94799 29.4516 6.17012 21.6856 11.8981 15.9576C17.626 10.2297 25.392 7.00756 33.4925 6.99805C33.7434 6.99805 33.984 7.09771 34.1614 7.27511C34.3388 7.45251 34.4385 7.69311 34.4385 7.94399C34.4385 8.19487 34.3388 8.43548 34.1614 8.61288C33.984 8.79028 33.7434 8.88994 33.4925 8.88994C25.8936 8.89895 18.6085 11.9216 13.2353 17.2948C7.86203 22.6681 4.83938 29.9532 4.83037 37.5521C4.83037 38.2143 4.85307 38.8764 4.89753 39.5301C4.91468 39.7803 4.83173 40.0271 4.66694 40.2162C4.50214 40.4053 4.26899 40.5212 4.01875 40.5385L3.95631 40.5403Z" fill="#8C63A9"/>
<path d="M28.392 13.9933C28.205 13.9932 28.0221 13.9377 27.8666 13.8338C27.7111 13.7298 27.5899 13.5821 27.5183 13.4093C27.4467 13.2365 27.428 13.0463 27.4645 12.8628C27.5009 12.6794 27.591 12.5108 27.7232 12.3785L32.1626 7.94584L27.7261 3.50936C27.5538 3.33095 27.4584 3.092 27.4606 2.84398C27.4627 2.59595 27.5622 2.3587 27.7376 2.18331C27.913 2.00793 28.1503 1.90844 28.3983 1.90629C28.6463 1.90413 28.8852 1.99948 29.0637 2.17179L34.1718 7.2799C34.3491 7.45729 34.4487 7.69785 34.4487 7.94868C34.4487 8.19951 34.3491 8.44007 34.1718 8.61746L29.0637 13.7256C28.8841 13.9002 28.6425 13.9965 28.392 13.9933Z" fill="#8C63A9"/>
<path d="M5.98609 60.2776C5.90302 60.2773 5.82035 60.2661 5.74015 60.2445C5.62014 60.2124 5.50764 60.1569 5.40908 60.0812C5.31052 60.0056 5.22783 59.9113 5.16572 59.8037C5.10362 59.696 5.06332 59.5773 5.04713 59.4541C5.03094 59.3309 5.03917 59.2057 5.07136 59.0857L6.94055 52.1122C6.97271 51.9922 7.0282 51.8797 7.10384 51.7812C7.17949 51.6826 7.2738 51.5999 7.38141 51.5378C7.48902 51.4757 7.6078 51.4354 7.73099 51.4192C7.85417 51.403 7.97933 51.4112 8.09933 51.4434L15.0728 53.3126C15.3152 53.3776 15.5218 53.5362 15.6472 53.7535C15.7727 53.9708 15.8066 54.2291 15.7416 54.4714C15.6767 54.7138 15.5181 54.9204 15.3007 55.0458C15.0834 55.1712 14.8252 55.2052 14.5828 55.1402L8.52312 53.516L6.89893 59.5757C6.84522 59.7769 6.72665 59.9547 6.56161 60.0816C6.39657 60.2085 6.19428 60.2774 5.98609 60.2776Z" fill="#8C63A9"/>
<path d="M59.1387 53.3041C58.9305 53.3039 58.7282 53.2349 58.5632 53.108C58.3981 52.9811 58.2796 52.8033 58.2259 52.6022L56.3576 45.6287C56.3216 45.5076 56.3102 45.3804 56.3241 45.2548C56.338 45.1292 56.377 45.0077 56.4386 44.8974C56.5003 44.7871 56.5835 44.6903 56.6832 44.6126C56.7829 44.535 56.8972 44.4781 57.0192 44.4454C57.1413 44.4126 57.2687 44.4047 57.3938 44.422C57.519 44.4393 57.6395 44.4815 57.7481 44.5461C57.8567 44.6108 57.9512 44.6965 58.0261 44.7983C58.101 44.9 58.1548 45.0158 58.1842 45.1387L59.8084 51.1994L65.8682 49.5752C66.1105 49.5102 66.3688 49.5442 66.5861 49.6696C66.8034 49.795 66.962 50.0016 67.027 50.244C67.0919 50.4863 67.058 50.7445 66.9325 50.9619C66.8071 51.1792 66.6005 51.3378 66.3582 51.4027L59.3837 53.271C59.3038 53.2926 59.2215 53.3037 59.1387 53.3041Z" fill="#8C63A9"/>
<path d="M34.9636 55.1012H31.2536C30.9064 55.1028 30.5703 54.9795 30.3067 54.7537C30.043 54.5279 29.8694 54.2147 29.8176 53.8715L29.5026 51.885C27.9322 51.5106 26.4314 50.8886 25.0567 50.0423L23.4249 51.2209C23.1461 51.4262 22.803 51.5248 22.4578 51.4992C22.1125 51.4735 21.7879 51.3251 21.5425 51.0809L18.9194 48.4588C18.6742 48.215 18.5242 47.8915 18.4967 47.5468C18.4691 47.2021 18.5657 46.8589 18.769 46.5792L19.9476 44.9474C19.1013 43.5726 18.4793 42.0719 18.1049 40.5015L16.1184 40.1865C15.7752 40.1347 15.462 39.9611 15.2362 39.6974C15.0104 39.4338 14.8871 39.0977 14.8887 38.7505V35.0368C14.8871 34.6896 15.0104 34.3535 15.2362 34.0899C15.462 33.8262 15.7752 33.6526 16.1184 33.6008L18.1049 33.2858C18.4793 31.7154 19.1013 30.2146 19.9476 28.8399L18.769 27.2081C18.5647 26.9282 18.4676 26.5844 18.4951 26.239C18.5227 25.8936 18.6733 25.5696 18.9194 25.3257L21.5415 22.7026C21.7855 22.4575 22.1089 22.3077 22.4535 22.2802C22.7982 22.2526 23.1413 22.349 23.4211 22.5522L25.0529 23.7308C26.4277 22.8845 27.9284 22.2625 29.4988 21.8881L29.8138 19.9016C29.8656 19.5584 30.0392 19.2452 30.3029 19.0194C30.5665 18.7936 30.9026 18.6703 31.2498 18.6719H34.9598C35.3069 18.6703 35.643 18.7936 35.9067 19.0194C36.1703 19.2452 36.3439 19.5584 36.3957 19.9016L36.7107 21.8881C38.2811 22.2625 39.7819 22.8845 41.1567 23.7308L42.7884 22.5522C43.0688 22.3472 43.4133 22.2497 43.7594 22.2773C44.1056 22.3049 44.4303 22.4558 44.6746 22.7026L47.2977 25.3247C47.5429 25.5686 47.6929 25.892 47.7204 26.2367C47.748 26.5814 47.6515 26.9246 47.4482 27.2043L46.2695 28.8361C47.1158 30.2109 47.7378 31.7116 48.1122 33.282L50.0987 33.597C50.4419 33.6488 50.7551 33.8224 50.9809 34.0861C51.2067 34.3497 51.33 34.6858 51.3284 35.033V38.743C51.33 39.0901 51.2067 39.4262 50.9809 39.6899C50.7551 39.9535 50.4419 40.1271 50.0987 40.1789L48.1122 40.4939C47.7378 42.0643 47.1158 43.5651 46.2695 44.9399L47.4482 46.5716C47.6534 46.8518 47.7512 47.1964 47.7236 47.5427C47.696 47.8889 47.5448 48.2137 47.2977 48.4578L44.6756 51.0809C44.4317 51.326 44.1082 51.4758 43.7636 51.5033C43.4189 51.5309 43.0758 51.4345 42.796 51.2313L41.1642 50.0527C39.7894 50.899 38.2887 51.521 36.7183 51.8954L36.4033 53.8819C36.3491 54.2239 36.174 54.5351 35.9098 54.7589C35.6456 54.9826 35.3098 55.1041 34.9636 55.1012ZM31.6253 53.2112H34.5861L34.9446 50.957C34.9752 50.7649 35.0643 50.5869 35.1997 50.4473C35.3351 50.3076 35.5103 50.2131 35.7014 50.1766C37.4778 49.8359 39.166 49.1365 40.6629 48.1211C40.8235 48.0128 41.0136 47.9565 41.2073 47.9597C41.401 47.9629 41.589 48.0255 41.746 48.1391L43.601 49.4728L45.6896 47.3842L44.3511 45.5311C44.2376 45.3741 44.175 45.1861 44.1717 44.9924C44.1685 44.7986 44.2249 44.6086 44.3332 44.448C45.3486 42.9511 46.048 41.2629 46.3887 39.4865C46.4252 39.2954 46.5197 39.1202 46.6593 38.9848C46.799 38.8494 46.977 38.7603 47.1691 38.7297L49.4233 38.3712V35.4104L47.1691 35.0519C46.977 35.0213 46.799 34.9322 46.6593 34.7968C46.5197 34.6614 46.4252 34.4862 46.3887 34.2951C46.048 32.5187 45.3486 30.8305 44.3332 29.3336C44.2249 29.173 44.1685 28.983 44.1717 28.7893C44.175 28.5956 44.2376 28.4075 44.3511 28.2505L45.6896 26.3993L43.601 24.3107L41.7479 25.6492C41.5909 25.7627 41.4029 25.8253 41.2092 25.8286C41.0154 25.8318 40.8254 25.7754 40.6648 25.6672C39.1679 24.6518 37.4797 23.9523 35.7033 23.6116C35.5122 23.5751 35.337 23.4806 35.2016 23.341C35.0662 23.2013 34.9771 23.0233 34.9465 22.8312L34.588 20.577H31.6272L31.2687 22.8312C31.2381 23.0233 31.149 23.2013 31.0136 23.341C30.8782 23.4806 30.703 23.5751 30.5119 23.6116C28.7355 23.9523 27.0473 24.6518 25.5504 25.6672C25.3898 25.7754 25.1998 25.8318 25.0061 25.8286C24.8124 25.8253 24.6243 25.7627 24.4673 25.6492L22.6161 24.3107L20.5275 26.3993L21.866 28.2524C21.9795 28.4094 22.0421 28.5974 22.0454 28.7912C22.0486 28.9849 21.9922 29.1749 21.884 29.3355C20.8686 30.8324 20.1691 32.5206 19.8284 34.297C19.7919 34.4881 19.6974 34.6633 19.5578 34.7987C19.4181 34.9341 19.2401 35.0232 19.048 35.0538L16.7938 35.4123V38.3731L19.048 38.7316C19.2401 38.7622 19.4181 38.8513 19.5578 38.9867C19.6974 39.1221 19.7919 39.2973 19.8284 39.4884C20.1691 41.2648 20.8686 42.953 21.884 44.4499C21.9922 44.6105 22.0486 44.8005 22.0454 44.9942C22.0421 45.188 21.9795 45.376 21.866 45.533L20.5275 47.3842L22.6161 49.4728L24.4692 48.1343C24.6262 48.0208 24.8142 47.9582 25.008 47.9549C25.2017 47.9517 25.3917 48.0081 25.5523 48.1164C27.0492 49.1318 28.7374 49.8312 30.5138 50.1719C30.7049 50.2084 30.8801 50.3029 31.0155 50.4425C31.1509 50.5822 31.24 50.7602 31.2706 50.9523L31.6253 53.2112Z" fill="#8C63A9"/>
<path d="M33.1084 47.0615C31.0972 47.0615 29.1311 46.4651 27.4588 45.3477C25.7866 44.2303 24.4832 42.6422 23.7135 40.784C22.9439 38.9259 22.7425 36.8813 23.1349 34.9087C23.5272 32.9361 24.4957 31.1242 25.9179 29.702C27.34 28.2799 29.1519 27.3114 31.1245 26.919C33.0971 26.5267 35.1417 26.728 36.9999 27.4977C38.858 28.2674 40.4461 29.5707 41.5635 31.243C42.6809 32.9153 43.2773 34.8813 43.2773 36.8926C43.2743 39.5886 42.202 42.1734 40.2956 44.0798C38.3892 45.9861 35.8044 47.0585 33.1084 47.0615ZM33.1084 28.6155C31.4713 28.6155 29.8711 29.101 28.5099 30.0105C27.1488 30.92 26.0879 32.2126 25.4614 33.7251C24.8349 35.2375 24.671 36.9017 24.9904 38.5073C25.3098 40.1129 26.0981 41.5877 27.2556 42.7453C28.4132 43.9029 29.888 44.6912 31.4936 45.0105C33.0992 45.3299 34.7634 45.166 36.2759 44.5395C37.7883 43.9131 39.081 42.8522 39.9905 41.491C40.9 40.1299 41.3854 38.5296 41.3854 36.8926C41.3829 34.6981 40.5101 32.5943 38.9584 31.0426C37.4067 29.4909 35.3028 28.618 33.1084 28.6155Z" fill="#8C63A9"/>
</svg>
