<svg width="270" height="857" viewBox="0 0 270 857" fill="none" xmlns="http://www.w3.org/2000/svg">
<path d="M-173 2C-170.924 22.2752 -169.995 42.9493 -167 63.1111C-161.925 97.2676 -140.831 132.469 -127.778 163.667C-107.929 211.107 -90.0271 259.946 -65.6667 305.333C-47.9441 338.353 -33.4282 361.315 -12.1111 392.444C5.0274 417.472 23.4442 445.207 46.7778 465.333C86.9995 500.027 153.43 523.952 207 509.667C229.703 503.613 246.114 483.635 256.556 463.556C266.033 445.33 275.148 410.399 260.111 392.444C250.174 380.579 234.783 380.575 220.667 383.222C190.621 388.856 175.733 410.756 154.889 430.778C93.0571 490.169 48.9722 567.385 15.8889 646.222C-0.621901 685.567 -19.4541 725.823 -42.5555 761.778C-56.2473 783.087 -73.5017 810.064 -96.7778 822.444C-150.948 851.258 -215.267 854 -275.222 854C-292.252 854 -315 861.38 -315 840" stroke="#8C63A9" stroke-width="3" stroke-linecap="round" stroke-dasharray="12 12"/>
</svg>
