<svg width="425" height="468" viewBox="0 0 425 468" fill="none" xmlns="http://www.w3.org/2000/svg">
<path d="M446.085 160.012C438.103 157.996 430.239 155.121 421.825 156.608C404.254 159.714 389.795 170.199 377.219 182.359C370.238 189.11 364.022 196.526 357.833 203.992C348.321 215.467 338.207 226.175 327.441 236.494C305.734 257.302 282.158 277.085 250.494 276.445C239.436 276.221 228.117 274.374 217.683 270.651C201.754 264.967 187.782 254.969 173.387 246.338C151.558 233.249 125.919 222.772 100.124 230.231C78.9447 236.357 65.2201 255.156 49.9148 269.554C38.9467 279.872 26.8134 288.77 15.4504 298.628C11.4582 302.091 7.37924 305.308 2.99998 308.256" stroke="#8C63A9" stroke-width="3" stroke-linecap="round" stroke-dasharray="12 12"/>
</svg>
