<svg width="691" height="700" viewBox="0 0 691 700" fill="none" xmlns="http://www.w3.org/2000/svg">
<path d="M2 238.024C32.194 203.516 48.3996 159.248 95.1111 143.357C108.397 138.837 122.485 137.283 136.444 138.357C159.093 140.099 175.04 153.801 192.667 166.912C259.583 216.689 321.276 284.332 401.556 312.246C430.836 322.427 463.867 326.715 494.667 322.024C534.661 315.932 571.126 283.889 591.222 249.912C609.606 218.83 613.663 180.115 613.111 144.69C612.452 102.423 599.973 66.8716 576.667 31.9125C571.357 23.9476 559.079 1.16595 546 2.02357C528.822 3.14997 522.935 40.3714 520.778 50.9125C511.811 94.7258 510.484 144.015 518.889 188.024C534.115 267.755 577.501 342.875 619.333 411.135C667.393 489.555 721.846 565.835 783.778 634.024C806.538 659.083 831.779 679.619 860 698.024" stroke="#8C63A9" stroke-width="3" stroke-linecap="round" stroke-dasharray="12 12"/>
</svg>
