<svg width="393" height="571" viewBox="0 0 393 571" fill="none" xmlns="http://www.w3.org/2000/svg">
<path d="M390.9 313.521C365.152 314.664 339.475 316.062 313.714 314.342C300.778 313.478 288.65 311.897 277.206 305.45C245.511 287.596 217.905 259.5 197.056 230.031C187.668 216.761 178.921 202.379 174.933 186.454C173.124 179.229 172.128 170.486 175.707 163.524C181.369 152.508 200.332 149.796 210.281 154.751C218.917 159.053 226.357 168.345 231.721 176.01C241.801 190.415 248.14 206.032 251.003 223.406C259.116 272.617 246.097 325.546 209.768 360.811C155.583 413.41 75.8935 413.365 7.84373 391.498C-35.6228 377.53 -73.8592 354.045 -111.372 328.564C-144.143 306.303 -175.451 282.076 -207 258.171" stroke="#8C63A9" stroke-width="3" stroke-linecap="round" stroke-dasharray="12 12"/>
</svg>
