<svg width="173" height="173" viewBox="0 0 173 173" fill="none" xmlns="http://www.w3.org/2000/svg">
<path d="M35.8164 96.6963V76.4229C35.8164 68.0384 28.9957 61.2178 20.6113 61.2178H5.40625V111.901H20.6113C28.9957 111.901 35.8164 105.081 35.8164 96.6963ZM15.543 71.3545H20.6113C23.4077 71.3545 25.6797 73.6265 25.6797 76.4229V96.6963C25.6797 99.4927 23.4077 101.765 20.6113 101.765H15.543V71.3545Z" fill="#8C63A9"/>
<path d="M76.3633 71.3545V61.2178H45.9531C45.9531 65.1086 45.9531 114.438 45.9531 111.901H76.3633V101.765H56.0898V91.6279H66.2266V81.4912H56.0898V71.3545H76.3633Z" fill="#8C63A9"/>
<path d="M127.047 111.901V61.2178H113.777L106.773 75.225L99.7696 61.2178H86.5V111.901H96.6367V77.6207L106.773 97.8941L116.91 77.6207V111.901H127.047Z" fill="#8C63A9"/>
<path d="M152.389 61.2178C144.004 61.2178 137.184 68.0384 137.184 76.4229V96.6963C137.184 105.081 144.004 111.901 152.389 111.901C160.773 111.901 167.594 105.081 167.594 96.6963V76.4229C167.594 68.0384 160.773 61.2178 152.389 61.2178ZM157.457 96.6963C157.457 99.4927 155.185 101.765 152.389 101.765C149.592 101.765 147.32 99.4927 147.32 96.6963V76.4229C147.32 73.6265 149.592 71.3545 152.389 71.3545C155.185 71.3545 157.457 73.6265 157.457 76.4229V96.6963Z" fill="#8C63A9"/>
<path d="M144.059 131.992L94.1028 160.838C89.4105 163.541 83.59 163.541 78.8977 160.838L28.9416 131.992C26.3828 130.517 24.3237 128.339 22.9822 125.702L13.9443 130.295C16.1764 134.69 19.6114 138.313 23.8733 140.773L73.8294 169.619C77.7394 171.871 82.1198 172.999 86.5003 172.999C90.8807 172.999 95.2611 171.871 99.1712 169.619L149.127 140.773C153.389 138.313 156.824 134.69 159.056 130.294L150.018 125.701C148.677 128.339 146.618 130.517 144.059 131.992Z" fill="#8C63A9"/>
<path d="M28.9416 41.0045L78.8977 12.1585C83.59 9.45604 89.4105 9.45604 94.1028 12.1585L144.059 41.0045C146.618 42.4794 148.677 44.6575 150.018 47.2954L159.056 42.7021C156.824 38.3068 153.389 34.684 149.127 32.2238L99.1712 3.37806C91.3507 -1.12602 81.6498 -1.12602 73.8294 3.37806L23.8733 32.2241C19.6118 34.684 16.1764 38.3072 13.9443 42.7024L22.9822 47.2957C24.3237 44.6575 26.3828 42.4794 28.9416 41.0045Z" fill="#8C63A9"/>
<path d="M114.376 47.2802L119.444 38.4998L86.5 19.4688L53.5557 38.4947L58.624 47.2755L86.5 31.1794L114.376 47.2802Z" fill="#8C63A9"/>
</svg>
