<svg width="57" height="57" viewBox="0 0 57 57" fill="none" xmlns="http://www.w3.org/2000/svg">
<g clip-path="url(#clip0)">
<path d="M56.0505 2.48717e-08C56.0504 2.48717e-08 56.0501 2.48717e-08 56.05 2.48717e-08H0.95C0.425481 -0.000118725 0.00011875 0.425006 0 0.949525C0 0.949644 0 0.949881 0 0.95V19.95H1.9V1.9H55.1V22.8H21.85V24.7H56.05C56.5745 24.7001 56.9999 24.275 57 23.7505C57 23.7504 57 23.7501 57 23.75V0.95C57.0001 0.425481 56.575 0.000118775 56.0505 2.48717e-08Z" fill="#8C63A9"/>
<path d="M50.3496 4.75H31.3496V6.65H50.3496V4.75Z" fill="#8C63A9"/>
<path d="M53.2002 10.4502H34.2002V12.3502H53.2002V10.4502Z" fill="#8C63A9"/>
<path d="M49.4004 16.1494H30.4004V18.0494H49.4004V16.1494Z" fill="#8C63A9"/>
<path d="M30.3242 8.19047C29.6738 6.62712 27.8793 5.88707 26.3161 6.53747C26.2893 6.54863 26.2628 6.56003 26.2364 6.57191L18.5333 10.5678C18.8371 9.93823 18.9966 9.24877 19 8.54981C19 5.9265 16.8733 3.7998 14.25 3.7998C11.6267 3.7998 9.5 5.9265 9.5 8.54981C9.50356 9.58091 9.84592 10.5823 10.4743 11.3998H10.4348C7.73822 11.4179 5.33104 13.0943 4.37902 15.6173L1.843 24.3584C1.23927 25.9266 2.02112 27.6874 3.58946 28.2912C4.30457 28.5664 5.09722 28.5618 5.80913 28.2781C6.62708 27.9486 7.26358 27.2831 7.55654 26.4514L8.55 23.2896V37.0389C7.73252 36.4106 6.73111 36.0682 5.7 36.0645C3.08061 36.0606 0.953919 38.1809 0.95 40.8004C0.9481 42.0833 1.46585 43.3121 2.38533 44.2068C0.926131 44.9523 0.00570002 46.4504 2.48717e-08 48.0889V56.0498C-0.000118725 56.5743 0.425006 56.9997 0.949525 56.9998C0.949644 56.9998 0.949881 56.9998 0.95 56.9998H10.45C10.9745 56.9999 11.3999 56.5748 11.4 56.0503C11.4 56.0502 11.4 56.0499 11.4 56.0498V48.0889C11.3954 46.7424 10.7698 45.4735 9.70472 44.6498H16.8954C15.8302 45.4735 15.2046 46.7424 15.2001 48.0889V56.0498C15.2 56.5743 15.6251 56.9997 16.1496 56.9998C16.1498 56.9998 16.15 56.9998 16.1501 56.9998H25.6501C26.1746 56.9999 26.6 56.5748 26.6001 56.0503C26.6001 56.0502 26.6001 56.0499 26.6001 56.0498V48.0889C26.5944 46.4504 25.674 44.9523 24.2148 44.2068C26.0904 42.376 26.1269 39.3713 24.2961 37.4956C23.1687 36.3405 21.5315 35.8376 19.9501 36.1606V16.7268L28.6712 12.1985C30.2345 11.5482 30.9745 9.75369 30.3242 8.19047ZM14.25 5.6998C15.824 5.6998 17.1 6.97577 17.1 8.54981C17.1 10.1238 15.824 11.3998 14.25 11.3998C12.6767 11.3981 11.4017 10.1231 11.4 8.54981C11.4 6.97577 12.676 5.6998 14.25 5.6998ZM5.7 37.9645C7.27403 37.9645 8.55 39.2405 8.55 40.8145C8.55 42.3886 7.27403 43.6645 5.7 43.6645C4.12597 43.6645 2.85 42.3886 2.85 40.8145C2.85166 39.2412 4.12668 37.9663 5.7 37.9645ZM9.5 55.0998H1.9V48.0889C1.9019 46.7149 3.01542 45.6015 4.38959 45.5998H7.01041C8.38446 45.6015 9.4981 46.7149 9.5 48.0889V55.0998ZM24.7 48.0889V55.0998H17.1V48.0889C17.1019 46.7149 18.2154 45.6015 19.5896 45.5998H22.2104C23.5846 45.6015 24.6981 46.7149 24.7 48.0889ZM20.9 37.9645C22.4733 37.9662 23.7483 39.2412 23.75 40.8145C23.75 42.3886 22.474 43.6645 20.9 43.6645C19.326 43.6645 18.05 42.3886 18.05 40.8145C18.05 39.2405 19.326 37.9645 20.9 37.9645ZM28.5859 9.77531C28.4587 10.1016 28.1975 10.3578 27.8687 10.4785L18.5626 15.3064C18.2477 15.4698 18.05 15.7951 18.05 16.1498V37.0389C16.2705 38.3546 15.6541 40.7359 16.5718 42.7498H15.2V26.5998H13.3V42.7498H10.0282C10.2985 42.1525 10.4409 41.5053 10.4464 40.8498H10.45V17.0998C10.4499 16.575 10.0244 16.1498 9.49976 16.1499C9.08497 16.15 8.71815 16.4193 8.5937 16.815L5.757 25.8418C5.54206 26.4346 4.88716 26.741 4.29436 26.5259C4.25279 26.5109 4.21206 26.4934 4.1724 26.4736C3.62437 26.1904 3.39174 25.5292 3.64182 24.9651L6.17773 16.224C6.86161 14.4677 8.54988 13.308 10.4347 13.2998H17.1613C17.3135 13.3 17.4636 13.2633 17.5987 13.1932L27.0408 8.292C27.6072 8.05569 28.2601 8.29746 28.5359 8.84585C28.682 9.13489 28.7002 9.47214 28.5859 9.77531Z" fill="#8C63A9"/>
<path d="M39.4151 44.2069C41.294 42.3763 41.3332 39.3689 39.5026 37.49C37.6719 35.611 34.6646 35.5718 32.7856 37.4024C30.9066 39.2331 30.8674 42.2404 32.6981 44.1194C32.7269 44.149 32.7562 44.1782 32.7857 44.2069C31.3266 44.9525 30.4061 46.4506 30.4004 48.0891V56.05C30.4003 56.5745 30.8254 56.9999 31.3499 57C31.35 57 31.3503 57 31.3504 57H40.8504C41.3749 57.0001 41.8003 56.575 41.8004 56.0505C41.8004 56.0503 41.8004 56.0501 41.8004 56.05V48.0891C41.7947 46.4506 40.8743 44.9525 39.4151 44.2069ZM36.1004 37.9647C37.6744 37.9647 38.9504 39.2407 38.9504 40.8147C38.9504 42.3888 37.6744 43.6647 36.1004 43.6647C34.5264 43.6647 33.2504 42.3888 33.2504 40.8147C33.2521 39.2414 34.5271 37.9665 36.1004 37.9647ZM39.9004 55.1H32.3004V48.0891C32.3023 46.7151 33.4158 45.6017 34.79 45.6H37.4108C38.7849 45.6017 39.8985 46.7151 39.9004 48.0891V55.1Z" fill="#8C63A9"/>
<path d="M54.6143 44.2069C56.4933 42.3763 56.5325 39.3689 54.7018 37.49C52.8711 35.611 49.8638 35.5718 47.9848 37.4024C46.1058 39.2331 46.0667 42.2404 47.8973 44.1194C47.9262 44.149 47.9554 44.1782 47.9849 44.2069C46.5259 44.9525 45.6053 46.4506 45.5996 48.0891V56.05C45.5995 56.5745 46.0246 56.9999 46.5491 57C46.5493 57 46.5495 57 46.5496 57H56.0496C56.5741 57.0001 56.9995 56.575 56.9996 56.0505C56.9996 56.0503 56.9996 56.0501 56.9996 56.05V48.0891C56.9939 46.4506 56.0735 44.9525 54.6143 44.2069ZM51.2996 37.9647C52.8736 37.9647 54.1496 39.2407 54.1496 40.8147C54.1496 42.3888 52.8736 43.6647 51.2996 43.6647C49.7256 43.6647 48.4496 42.3888 48.4496 40.8147C48.4513 39.2414 49.7263 37.9665 51.2996 37.9647ZM55.0996 55.1H47.4996V48.0891C47.5015 46.7151 48.615 45.6017 49.9892 45.6H52.61C53.9841 45.6017 55.0977 46.7151 55.0996 48.0891V55.1Z" fill="#8C63A9"/>
</g>
<defs>
<clipPath id="clip0">
<rect width="57" height="57" fill="white"/>
</clipPath>
</defs>
</svg>
