<svg width="387" height="206" viewBox="0 0 387 206" fill="none" xmlns="http://www.w3.org/2000/svg">
<path d="M44.715 205.262C44.715 205.262 -8.17942 149.046 28.9125 96.6056C42.7543 77.0427 78.0905 66.0541 110.559 74.9649C129.741 80.2324 158.844 79.4569 187.274 33.0445C226.049 -30.2387 386.985 -1.47228 355.57 109.423C342.343 156.128 391.653 158.265 367.232 205.365L44.715 205.262Z" fill="#EBF3FA"/>
<path d="M331.077 92.6551L215.865 189.05L155.245 137.4C143.905 147.393 126.376 162.815 108.745 178.281C96.7026 188.86 86.9431 197.405 79.0419 204.311L23.9819 204.253C39.243 191.26 100.726 137.224 142.149 100.717L154.806 89.5531L216.085 141.76L306.027 66.5078L331.077 92.6551Z" fill="#D5E5FB"/>
<path d="M291.454 54.6703L346.323 109.701L361.819 46.8276L291.454 54.6703Z" fill="#D5E5FB"/>
<path d="M111.568 170.643C111.364 165.609 110.925 161.22 110.398 158.162C109.549 153.289 108.803 150.48 108.788 150.451C108.671 150.026 107.076 148.285 103.506 148.344C99.9361 148.402 100.273 150.67 100.273 150.67C100.273 150.743 100.287 150.817 100.302 150.875C100.331 150.992 103.609 162.859 103.462 178.193C103.462 178.412 103.433 178.778 103.448 179.027C103.448 179.027 111.715 179.246 111.715 179.027C112.007 177.681 111.861 173.964 111.568 170.643Z" fill="#B7D3F3"/>
<path d="M112.607 178.105C112.607 178.325 112.49 178.486 112.359 178.486C112.227 178.486 112.11 178.31 112.11 178.105H105.028C105.028 178.325 104.911 178.486 104.779 178.486C104.633 178.486 104.531 178.31 104.531 178.09C104.574 173.701 104.326 169.604 103.945 165.99C103.009 156.977 101.268 150.948 101.238 150.86C101.224 150.802 101.209 150.729 101.209 150.656C101.209 150.656 100.873 148.388 104.443 148.329C108.013 148.271 109.608 150.012 109.725 150.436C109.725 150.465 110.164 152.046 110.735 154.899C110.925 155.85 111.13 156.933 111.334 158.147C111.861 161.205 112.3 165.595 112.505 170.628C112.783 173.964 112.885 176.774 112.607 178.105Z" fill="#D2E3FC"/>
<path d="M103.989 178.486H131.761C131.761 178.486 131.117 175.867 115.036 176.262C103.653 176.54 103.989 178.486 103.989 178.486Z" fill="#C5DCF8"/>
<path d="M101.721 205.818C104.94 189.518 104.106 179.525 104.106 179.393C104.092 179.144 104.56 178.91 104.809 178.91C105.057 178.91 106.169 178.837 106.301 179.056C106.477 179.334 107.12 191.655 102.321 205.833H101.721V205.818Z" fill="#B7D3F3"/>
<path d="M127.649 205.818C124.43 189.518 125.264 179.525 125.264 179.393C125.279 179.144 124.81 178.91 124.562 178.91C124.313 178.91 123.201 178.837 123.069 179.056C122.894 179.334 122.25 191.655 127.049 205.833H127.649V205.818Z" fill="#B7D3F3"/>
<path d="M132.785 205.818C129.566 189.518 130.4 179.525 130.4 179.393C130.414 179.144 129.946 178.91 129.697 178.91C129.449 178.91 128.337 178.837 128.205 179.056C128.029 179.334 127.386 191.655 132.185 205.833H132.785V205.818Z" fill="#B7D3F3"/>
<path d="M106.901 205.818C110.12 189.518 109.286 179.525 109.286 179.393C109.271 179.144 109.739 178.91 109.988 178.91C110.237 178.91 111.349 178.837 111.481 179.056C111.656 179.334 112.3 191.655 107.501 205.833H106.901V205.818Z" fill="#B7D3F3"/>
<path d="M131.775 179.32H104.004C103.696 179.32 103.433 179.071 103.433 178.749V178.369C103.433 178.061 103.682 177.798 104.004 177.798H131.775C132.082 177.798 132.346 178.047 132.346 178.369V178.749C132.331 179.071 132.082 179.32 131.775 179.32Z" fill="#B7D3F3"/>
<path d="M130.795 154.255L140.028 152.25L140.569 153.582C140.569 153.582 130.385 159.64 129.434 159.347C128.469 159.04 130.795 154.255 130.795 154.255Z" fill="#FFB27D"/>
<path d="M122.396 196C122.162 196.263 122.133 196.556 122.25 196.878C122.455 197.463 123.157 198.122 123.977 198.765C124.079 198.853 124.167 198.926 124.255 199C124.269 199.014 124.298 199.043 124.313 199.058C124.328 199.073 124.342 199.087 124.357 199.102C125.118 199.804 124.825 199.965 126.186 201.37C127.737 202.979 128.805 203.009 129.112 202.862C129.376 202.731 128.849 201.882 128.264 200.916C128.234 200.872 128.205 200.829 128.176 200.77C128.103 200.638 128.03 200.507 127.942 200.39C127.269 199.234 127.444 198.692 127.605 196.966C127.737 195.561 129.785 189.138 129.785 189.138L126.815 188.625C126.815 188.625 125.923 193.732 124.928 194.522C124.401 194.946 123.816 194.946 123.303 195.254C123.274 195.268 123.23 195.298 123.201 195.327C122.923 195.532 122.63 195.722 122.396 196Z" fill="#FFB27D"/>
<path d="M122.396 196C122.162 196.264 122.133 196.556 122.25 196.878C122.513 197.463 123.186 198.107 123.977 198.766C124.079 198.853 124.167 198.927 124.255 199C124.269 199.014 124.298 199.044 124.313 199.058C124.328 199.073 124.342 199.087 124.357 199.102C125.118 199.804 124.825 199.965 126.186 201.37C127.737 202.98 128.805 203.009 129.112 202.863C129.376 202.731 128.849 201.882 128.264 200.916C127.956 200.799 126.566 200.243 125.498 198.883C124.562 197.697 123.947 196.161 123.303 195.269C123.274 195.283 123.23 195.312 123.201 195.342C122.923 195.532 122.63 195.722 122.396 196Z" fill="#1C468A"/>
<path d="M146.363 194.142C146.554 195.064 147.856 194.903 149.319 194.551C150.782 194.2 150.431 194.625 152.509 194.39C154.587 194.156 155.216 193.381 155.274 193.074C155.333 192.796 154.309 192.708 153.197 192.576C153.065 192.561 152.919 192.547 152.772 192.532C151.529 192.371 150.621 191.566 149.48 190.908C148.412 190.279 146.817 187.733 146.817 187.733L143.964 187.952C143.964 187.952 145.456 190.22 146.042 191.215C146.378 191.801 146.364 192.561 146.32 193.161C146.32 193.483 146.305 193.82 146.363 194.142Z" fill="#FFB27D"/>
<path d="M149.319 194.551C150.782 194.2 150.431 194.625 152.509 194.391C154.586 194.156 155.216 193.381 155.274 193.074C155.333 192.796 154.308 192.708 153.196 192.576L153.182 192.591C153.182 192.591 151.938 193.469 150.197 193.513C148.792 193.542 147.285 193.147 146.319 193.161C146.29 193.483 146.275 193.82 146.349 194.142C146.553 195.049 147.856 194.903 149.319 194.551Z" fill="#1C468A"/>
<path d="M140.028 152.251C140.028 152.251 140.701 150.582 141.462 150.524C142.223 150.465 144.593 150.085 144.754 150.422C144.93 150.758 144.754 151.987 144.242 152.426C143.73 152.865 140.569 153.582 140.569 153.582L140.028 152.251Z" fill="#FFB27D"/>
<path d="M135.433 175.896L129.288 192.43C129.288 192.43 128.337 192.518 127.444 192.254C126.61 192.02 125.659 191.391 125.659 191.391C125.659 191.391 127.181 175.515 129.976 172.209C132.77 168.916 135.433 175.896 135.433 175.896Z" fill="#163560"/>
<path d="M111.129 169.209C111.129 169.209 128.79 163.239 132.726 164.512C136.662 165.785 148.485 189.313 148.485 189.313C148.485 189.313 148.221 189.664 147.49 189.942C146.817 190.191 145.178 190.176 145.178 190.176C145.178 190.176 134.511 181.031 133.238 178.354C131.965 175.691 131.453 173.145 130.195 173.394C128.922 173.642 113.807 179.612 110.369 176.057C106.945 172.501 107.837 167.877 107.837 167.877L111.129 169.209Z" fill="#1C468A"/>
<path d="M121.196 127.113C120.435 126.674 119.514 126.63 118.884 126.674C119.045 126.498 119.367 126.44 119.367 126.44C118.972 126.381 118.08 126.776 118.08 126.776C112.563 124.655 111.7 132.776 111.803 134.663C111.92 136.551 111.934 138.731 109.183 140.413C103.77 143.749 108.335 149.558 108.335 149.558C108.379 149.588 110.851 153.787 110.851 153.787C110.705 152.265 117.758 144.203 121.43 141.803C122.323 140.487 122.645 138.16 122.659 137.985C122.498 139.828 122.191 140.867 121.913 141.438C125.03 138.57 123.215 128.254 121.196 127.113Z" fill="#B5453C"/>
<path d="M121.226 141.921C121.24 141.935 119.455 142.857 118.109 142.491C116.836 142.14 116.017 140.501 116.031 140.501C116.573 140.399 116.719 139.653 116.705 136.492L116.953 136.536L121.036 137.341C121.036 137.341 120.948 138.628 120.933 139.828C120.933 140.852 120.992 141.804 121.226 141.921Z" fill="#FFB27D"/>
<path d="M121.021 137.341C121.021 137.341 120.933 138.628 120.918 139.828C118.636 139.77 117.421 137.677 116.938 136.521L121.021 137.341Z" fill="#ED975D"/>
<path d="M116.529 136.082C116.529 136.082 115.329 134.195 115.051 132.571C114.846 131.415 115.432 127.142 119.733 127.757C119.733 127.757 120.977 127.874 122.162 128.679C123.099 129.308 124.445 130.669 122.938 134.4L122.543 135.658L116.529 136.082Z" fill="#B5453C"/>
<path d="M121.782 138.482C121.782 138.482 116.382 138.57 116.382 135.205C116.382 131.839 115.68 129.586 119.133 129.381C122.586 129.176 123.259 130.464 123.523 131.59C123.801 132.717 123.186 138.365 121.782 138.482Z" fill="#FFB27D"/>
<path d="M121.592 129.308C121.592 129.308 120.114 133.259 117.846 133.844C115.578 134.429 114.598 133.815 114.598 133.815C114.598 133.815 116.339 132.425 116.705 130.01C116.69 130.01 120.48 127.42 121.592 129.308Z" fill="#B5453C"/>
<path d="M121.226 129.63C121.226 129.63 122.323 130.508 122.601 131.371C122.864 132.234 122.996 133.99 123.508 133.932C123.508 133.932 124.62 131.254 123.376 129.732C122.03 128.108 121.226 129.63 121.226 129.63Z" fill="#B5453C"/>
<path d="M109.183 156.45C108.657 154.212 110.456 149.88 112.359 146.296C114.071 143.047 115.856 140.399 116.017 140.501C120.538 143.194 120.948 140.955 120.948 140.955C120.948 140.955 125.059 141.496 126.23 143.501C127.678 145.988 129.229 152.939 130.78 154.255C130.546 154.987 130.649 155.367 130.897 156.275C130.956 156.465 131.014 156.655 131.073 156.831C131.307 157.46 131.6 157.987 131.848 158.426C131.058 158.908 129.537 159.816 128.424 159.157C126.713 158.162 125.381 155.104 124.635 153.904C124.635 153.904 124.635 153.89 124.62 153.89C122.996 163.122 125.205 165.229 124.079 166.195C122.894 167.219 121.196 165.712 117.465 167.322C115.022 168.375 111.627 169.912 109.344 170.175C108.145 170.321 107.252 170.102 106.959 169.297C106.14 166.956 110.208 160.708 109.183 156.45Z" fill="#1C468A"/>
<path d="M120.582 136.448C120.582 136.448 120.684 136.872 121.753 136.814C121.753 136.814 122.645 136.755 122.616 136.287C122.616 136.272 121.753 135.936 120.582 136.448Z" fill="white"/>
<path d="M106.989 169.311C107.282 170.116 108.174 170.335 109.374 170.189C110.954 169.501 117.787 166.853 117.699 165.068C117.582 162.42 116.383 162.332 117.231 159.054C117.904 156.421 111.598 151.533 110.603 150.465C108.715 154.05 108.657 154.226 109.198 156.464C110.208 160.708 106.14 166.956 106.989 169.311Z" fill="#163560"/>
<path d="M106.213 159.728C107.428 158.031 108.686 157.123 109.52 156.67C109.33 156.172 114.612 149.705 114.612 148.695C114.612 147.686 116.017 140.487 116.017 140.487C116.017 140.487 111.612 140.765 110.091 142.886C108.189 145.549 104.223 155.777 106.213 159.728Z" fill="#1C468A"/>
<path d="M109.52 156.684L118.314 158.981L117.494 160.459C117.494 160.459 106.784 160.386 106.213 159.728C105.642 159.084 109.52 156.684 109.52 156.684Z" fill="#FFB27D"/>
<path d="M124.649 153.904C125.396 155.119 126.727 158.162 128.439 159.157C129.566 159.816 131.087 158.908 131.863 158.426C131.614 157.972 131.322 157.46 131.087 156.831C130.458 156.977 129.697 157.153 129.2 157.314C128.234 157.592 124.649 153.904 124.649 153.904Z" fill="#163560"/>
<path d="M118.314 158.981C118.314 158.981 121.079 158.206 121.738 158.381C122.396 158.572 124.65 160.064 124.328 160.459C124.006 160.869 122.031 160.21 121.109 160.342C120.202 160.459 119.485 160.913 118.826 160.825C118.168 160.722 117.48 160.474 117.48 160.474L118.314 158.981Z" fill="#FFB27D"/>
<path d="M118.314 158.981C118.314 158.981 119.66 158.294 120.055 157.898C120.099 157.855 120.187 157.855 120.216 157.913C120.319 158.074 120.421 158.396 119.938 158.703C119.265 159.142 118.314 158.981 118.314 158.981Z" fill="#FFB27D"/>
<path d="M131.088 162.859H118.197C118.197 162.288 118.65 161.834 119.221 161.834H131.088V162.859Z" fill="#ED7D2B"/>
<path d="M131.044 148.827H150.987L146.202 162.859H126.142L131.044 148.827Z" fill="#ED7D2B"/>
<path d="M151.28 148.827L146.495 162.859H126.435L131.336 148.827H151.28Z" fill="#F99746"/>
<path d="M140.525 155.718C140.408 156.26 139.866 156.684 139.325 156.684C138.784 156.684 138.447 156.245 138.579 155.718C138.696 155.177 139.237 154.752 139.779 154.752C140.32 154.752 140.657 155.177 140.525 155.718Z" fill="#F9DDBF"/>
<path d="M151.279 148.827L146.495 162.859H133.209C142.003 159.859 144.344 150.7 144.739 148.827H151.279Z" fill="#ED893E"/>
<path d="M93.4105 205.818C93.6592 205.818 93.8787 205.643 93.9226 205.394L96.4247 191.201L100.024 170.789L101.034 165.083L98.4732 165.01L98.0342 168.317L94.903 191.596L93.0447 205.394C93.0154 205.628 93.191 205.818 93.4105 205.818Z" fill="#95C0F4"/>
<path d="M98.0195 168.346C99.6876 169.077 100.024 170.819 100.024 170.819L101.034 165.112L98.4731 165.039L98.0195 168.346Z" fill="#78ACEA"/>
<path d="M157.207 205.818C156.958 205.818 156.739 205.643 156.695 205.394L154.193 191.201L150.594 170.789L149.584 165.083L152.145 165.01L152.584 168.317L155.715 191.596L157.573 205.394C157.588 205.628 157.427 205.818 157.207 205.818Z" fill="#95C0F4"/>
<path d="M152.582 168.347C150.914 169.079 150.577 170.82 150.577 170.82L149.568 165.114L152.128 165.041L152.582 168.347Z" fill="#78ACEA"/>
<path d="M91.6984 167.336H157.367C158.23 167.336 158.932 166.634 158.932 165.771V164.424C158.932 163.561 158.23 162.859 157.367 162.859H91.6984C90.8351 162.859 90.1328 163.561 90.1328 164.424V165.771C90.1328 166.634 90.8351 167.336 91.6984 167.336Z" fill="#78ACEA"/>
<path d="M386.546 205.686H0.438958C0.204847 205.686 0 205.496 0 205.247V205.101C0 204.867 0.190215 204.662 0.438958 204.662H386.561C386.795 204.662 387 204.852 387 205.101V205.247C386.985 205.496 386.795 205.686 386.546 205.686Z" fill="#2E3552"/>
<path d="M254.83 160.474C254.83 160.474 253.133 162.581 253.659 162.874C254.186 163.166 255.606 163.708 255.927 163.357C256.249 163.005 256.366 160.533 256.366 160.533L254.83 160.474Z" fill="#FFB27D"/>
<path d="M254.888 160.503C254.888 160.503 254.186 160.752 253.923 161.103C253.659 161.454 253.045 162.025 253.191 162.171C253.337 162.318 254.215 161.645 254.215 161.645L254.888 160.503Z" fill="#FFB27D"/>
<path d="M261.268 132.264C261.268 132.264 259.351 150.144 259.175 150.641C259.132 150.758 258.985 151.314 258.78 152.134C258.473 153.29 258.049 154.972 257.639 156.553C257.025 158.952 256.469 161.162 256.469 161.162L254.8 160.606C254.8 160.606 254.713 151.914 255.137 149.924C255.561 147.92 256.937 135.629 257.624 133.976C258.327 132.337 261.268 132.264 261.268 132.264Z" fill="#AEC3FF"/>
<path d="M257.273 175.121L246.797 172.37C245.436 172.019 244.617 170.599 244.968 169.239L246.153 164.703C246.504 163.342 247.924 162.523 249.284 162.874L259.761 165.625C261.122 165.976 261.941 167.395 261.59 168.756L260.405 173.292C260.039 174.667 258.634 175.486 257.273 175.121Z" fill="#A02E2E"/>
<path d="M247.543 165.068L246.343 169.663C246.109 170.555 246.372 171.463 246.972 172.077C247.163 172.282 247.397 172.458 247.66 172.589C247.821 172.677 247.997 172.736 248.187 172.794L258.634 175.53C259.995 175.896 261.414 175.062 261.78 173.701L262.98 169.107C263.331 167.731 262.511 166.327 261.151 165.961L257.551 165.01L257.815 164.03C257.932 163.576 257.668 163.108 257.215 162.991L256.82 162.888L254.625 162.318L254.083 162.171C253.864 162.113 253.63 162.142 253.44 162.259C253.249 162.376 253.103 162.552 253.045 162.771L252.781 163.752L250.689 163.21C250.601 163.196 250.528 163.166 250.44 163.152C249.606 163.02 248.772 163.313 248.201 163.898C247.894 164.234 247.66 164.63 247.543 165.068ZM257.024 164.893L253.279 163.913L253.542 162.932C253.586 162.757 253.762 162.669 253.923 162.713L254.859 162.961L256.586 163.415L257.054 163.532C257.083 163.547 257.112 163.547 257.142 163.576C257.259 163.649 257.317 163.781 257.273 163.927L257.024 164.893Z" fill="#BC3F3F"/>
<path d="M255.825 163.415C255.825 163.415 256.293 162.625 256.117 162.361C255.942 162.083 255.313 163.166 255.313 163.166C255.313 163.166 255.737 162.23 255.576 162.083C255.415 161.937 254.757 163.005 254.757 163.005C254.757 163.005 255.166 162.098 255.02 162.069C254.874 162.039 254.391 162.83 254.391 162.83C254.391 162.83 254.64 162.156 254.42 162.186C254.186 162.215 253.688 162.83 253.688 162.83L255.825 163.415Z" fill="#FFB27D"/>
<path d="M258.781 152.134C258.473 153.29 258.049 154.972 257.639 156.552C257.376 155.821 257.039 154.65 256.835 153.041C256.454 150.085 257.639 143.779 257.639 143.779L258.781 152.134Z" fill="#9DB0F4"/>
<path d="M280.743 159.742C280.743 159.742 282.601 161.249 282.835 161.717C283.069 162.186 283.64 163.927 283.611 164.498C283.582 165.054 282.192 163.21 281.782 163.064C281.372 162.917 282.206 163.825 282.118 164.015C282.031 164.205 281.153 163.576 280.816 163.371C280.48 163.166 280.245 161.747 279.748 160.986C279.251 160.21 280.743 159.742 280.743 159.742Z" fill="#FFB27D"/>
<path d="M256.381 204.896H265.643C266.301 204.443 265.467 200.053 265.467 200.053C265.467 200.053 262.936 199.088 262.512 201.048C262.073 202.994 259.293 203.609 257.829 203.858C256.791 204.018 256.483 204.56 256.381 204.896Z" fill="#233862"/>
<path d="M270.105 204.896H279.367C280.026 204.443 279.192 200.053 279.192 200.053C279.192 200.053 276.661 199.088 276.236 201.048C275.797 202.994 273.017 203.609 271.554 203.858C270.53 204.018 270.208 204.56 270.105 204.896Z" fill="#233862"/>
<path d="M258.868 160.035C258.868 160.035 259.278 165.229 259.775 171.462C260.434 179.934 262.234 200.96 262.234 200.96C262.234 200.96 263.404 201.97 266.009 201.414C266.009 201.414 268.218 194.157 268.891 185.889C268.906 185.758 268.906 185.611 268.92 185.48C269.535 177.052 270.501 159.318 270.501 159.318L258.868 160.035Z" fill="#2B478B"/>
<path d="M258.722 158.25C258.722 158.25 259.278 165.229 259.776 171.477L268.891 185.904C268.906 185.773 268.906 185.626 268.921 185.495C269.535 177.067 270.501 159.333 270.501 159.333L258.722 158.25Z" fill="#233862"/>
<path d="M261.385 158.25C261.385 158.25 267.998 174.711 270.105 180.944C271.612 185.392 275.856 200.975 275.856 200.975C275.856 200.975 277.699 201.531 279.25 200.449C279.25 200.449 280.831 184.529 277.641 180.037C275.944 177.652 277.217 155.28 270.354 155.09C263.492 154.885 261.385 158.25 261.385 158.25Z" fill="#2B478B"/>
<path d="M273.983 159.742C271.232 161.293 259.424 161.264 258.868 160.035C257.639 157.314 257.346 143.457 257.917 139.214C257.917 139.214 258.21 132.688 258.868 132.966C263.228 130.961 270.296 132.776 270.296 132.776C272.198 133.332 272.037 137.692 272.564 143.794C272.637 144.584 272.71 145.403 272.798 146.252C273.178 150.027 273.72 154.358 274.554 158.923C274.597 159.245 274.393 159.508 273.983 159.742Z" fill="#AEC3FF"/>
<path d="M267.033 132.059C266.96 133.229 265.438 133.098 263.609 132.673C261.78 132.264 262.439 131.181 262.439 131.181C262.439 131.181 262.468 130.347 262.585 129.352C262.629 128.986 262.687 128.606 262.746 128.24C262.775 128.064 262.819 127.874 262.848 127.698C263.082 126.674 266.506 127.669 266.477 127.932C266.419 128.679 266.96 131.137 267.033 132.059Z" fill="#FFB27D"/>
<path d="M263.097 134.092L262.965 132.483L264.985 132.863L264.209 134.297L263.097 134.092Z" fill="#233862"/>
<path d="M262.483 130.42L261.268 132.264C261.268 132.264 261.268 133.39 262.322 134.224L263.975 132.688C263.975 132.673 262.907 132.264 262.483 130.42Z" fill="#9DB0F4"/>
<path d="M263.975 132.673C263.975 132.673 264.312 133.902 264.985 134.473C264.985 134.473 267.575 133.77 268.189 132.454L266.843 130.712C266.828 130.712 266.77 132.029 263.975 132.673Z" fill="#9DB0F4"/>
<path d="M266.506 128.518C266.506 128.518 264.853 129.615 262.585 129.352C262.629 128.986 262.687 128.606 262.746 128.24C263.199 128.138 263.58 128.064 263.58 128.064L266.506 128.518Z" fill="#E2915A"/>
<path d="M267.545 127.274C266.74 129.484 263.799 128.928 262.556 128.562C262.205 128.459 261.985 128.386 261.985 128.386C261.605 128.211 261.473 127.538 261.517 126.689C261.59 125.006 262.248 122.621 262.629 122.051C263.2 121.187 264.165 120.309 267.004 121.538C269.857 122.753 268.584 124.436 267.545 127.274Z" fill="#FFB27D"/>
<path d="M269.754 126.133C268.862 126.864 266.93 128.225 266.93 128.225C266.93 128.225 267.15 127.976 267.413 127.245C267.442 127.157 267.457 127.04 267.442 126.908C267.428 126.543 267.516 126.191 267.706 125.884C267.823 125.694 267.867 125.489 267.72 125.357C267.472 125.123 267.062 125.343 266.784 125.518C266.608 125.635 266.374 125.65 266.184 125.533C265.423 125.05 266.257 124.201 265.643 123.499C265.014 122.797 262.321 122.694 262.424 122.255C261.502 121.729 262.087 119.812 262.102 119.709C262.102 119.709 263.419 119.826 265.072 119.417C266.418 119.08 267.896 119.943 268.364 120.295C268.364 120.207 268.35 120.09 268.291 119.973C268.291 119.973 268.496 120.178 268.496 120.412C268.511 120.426 268.525 120.441 268.525 120.456C268.525 120.456 268.789 120.456 268.95 120.558C268.95 120.558 268.833 120.529 268.774 120.587C268.774 120.602 268.759 120.602 268.745 120.602C270.515 121.86 270.486 125.533 269.754 126.133Z" fill="#233862"/>
<path d="M263.302 126.952C263.302 126.952 263.156 127.23 262.439 126.996C262.439 126.996 261.824 126.806 261.927 126.484C261.927 126.484 262.585 126.411 263.302 126.952Z" fill="white"/>
<path d="M263.097 134.093C263.097 134.093 261.473 154.534 261.502 156.231C261.531 157.928 263.287 159.728 263.287 159.728C263.287 159.728 264.692 158.192 264.97 156.553C265.248 154.929 264.194 134.283 264.194 134.283L263.097 134.093Z" fill="#2A4E96"/>
<path d="M270.296 132.791C270.296 132.791 272.9 133.42 274.978 137.385C277.041 141.35 278.68 149.354 279.66 151.461C280.641 153.568 281.328 160.225 281.328 160.225L279.763 160.986C279.763 160.986 276.002 154.168 275.432 151.944C275.124 150.729 270.53 141.058 270.53 141.058L270.296 132.791Z" fill="#AEC3FF"/>
<path d="M273.983 159.742C269.067 159.04 270.471 142.769 270.852 142.696C271.232 142.638 272.652 145.608 272.652 145.608L272.783 146.266C273.164 150.041 273.705 154.372 274.539 158.938C274.598 159.245 274.393 159.508 273.983 159.742Z" fill="#9DB0F4"/>
<path d="M335.32 195.283C335.32 195.283 337.368 197.156 336.973 198.473C336.578 199.804 334.72 200.682 334.471 202.306C334.222 203.931 333.227 204.809 332.32 204.809C331.428 204.809 328.033 204.809 328.033 204.809C328.033 204.809 327.375 203.667 328.97 203.316C330.564 202.965 331.164 201.063 331.077 199.292C330.974 197.522 331.223 195.166 331.223 195.166L334.617 194.376L335.32 195.283Z" fill="#233862"/>
<path d="M310.212 200.112C310.212 200.112 310.577 204.37 309.685 204.809L298.184 204.78C298.184 204.78 298.184 203.448 300.028 203.155C301.871 202.863 305.12 201.78 305.676 199.366C306.217 196.966 310.212 200.112 310.212 200.112Z" fill="#233862"/>
<path d="M300.496 140.062C300.496 140.062 301.096 147.51 301.813 156.465C302.779 168.639 303.949 183.578 304.066 186.416C304.271 191.333 305.061 199.205 305.061 199.205C305.061 199.205 306.963 201.077 310.753 200.287C310.753 200.287 314.133 189.065 315.099 177.184C315.113 176.993 315.128 176.788 315.143 176.598C316.035 164.512 317.44 139.038 317.44 139.038L300.496 140.062Z" fill="#2A4E96"/>
<path d="M300.496 140.062C300.496 140.062 301.096 147.51 301.813 156.465L315.099 177.169C315.113 176.979 315.128 176.774 315.143 176.584C316.035 164.498 317.44 139.023 317.44 139.023L300.496 140.062Z" fill="#233862"/>
<path d="M303.261 140.94C303.261 140.94 314.191 167.922 321.39 180.607C328.589 193.293 330.828 196.834 330.828 196.834C330.828 196.834 334.939 195.21 335.32 194.113C335.32 194.113 332.569 169.634 327.755 163.664C325.034 160.298 322.692 152.807 322.81 149.266C323.014 143.164 320.717 136.083 320.717 136.083L303.261 140.94Z" fill="#2A4E96"/>
<path d="M294.541 141.35C294.541 141.35 292.492 144.115 292.346 144.847C292.2 145.578 292.024 148.212 292.258 148.987C292.507 149.763 293.78 146.69 294.292 146.339C294.804 145.988 293.97 147.554 294.175 147.788C294.38 148.022 295.36 146.822 295.741 146.412C296.121 146.003 295.945 143.954 296.355 142.71C296.765 141.467 294.541 141.35 294.541 141.35Z" fill="#FFB27D"/>
<path d="M303.539 101.17C303.539 101.17 300.774 126.849 300.54 127.581C300.481 127.742 300.276 128.547 299.969 129.717C299.53 131.385 298.915 133.785 298.345 136.068C297.467 139.521 296.516 142.491 296.516 142.491C296.516 142.491 296.106 142.754 295.096 142.681C294.409 142.623 294.043 142.037 294.043 142.037C294.043 142.037 294.145 129.425 294.76 126.557C295.374 123.674 297.35 106.028 298.345 103.643C299.325 101.287 303.539 101.17 303.539 101.17Z" fill="white"/>
<path d="M299.955 129.732C299.516 131.4 298.901 133.8 298.331 136.082C297.95 135.029 297.482 133.346 297.175 131.049C296.619 126.806 298.331 117.749 298.331 117.749L299.955 129.732Z" fill="#DCEAFF"/>
<path d="M321.8 140.648C317.835 142.886 300.877 142.828 300.086 141.072C298.331 137.151 297.892 117.266 298.726 111.15C298.726 111.15 299.15 101.771 300.086 102.18C306.349 99.2978 316.489 101.917 316.489 101.917C319.225 102.722 318.991 108.97 319.752 117.749C319.854 118.875 319.957 120.061 320.074 121.275C320.615 126.689 321.405 132.922 322.59 139.492C322.693 139.945 322.385 140.326 321.8 140.648Z" fill="white"/>
<path d="M311.821 100.878C311.718 102.561 309.524 102.37 306.89 101.771C304.256 101.171 305.207 99.6196 305.207 99.6196C305.207 99.6196 305.251 98.4344 305.412 97.0005C305.471 96.4884 305.544 95.9324 305.646 95.391C305.69 95.1276 305.749 94.8642 305.807 94.6155C306.144 93.1377 311.06 94.557 311.031 94.9667C310.943 96.0348 311.718 99.5611 311.821 100.878Z" fill="#FFB27D"/>
<path d="M306.173 103.805L305.968 101.493L308.88 102.049L307.768 104.112L306.173 103.805Z" fill="#233862"/>
<path d="M305.281 98.522L303.54 101.17C303.54 101.17 303.54 102.794 305.047 103.98L307.432 101.77C307.432 101.77 305.895 101.185 305.281 98.522Z" fill="#DCEAFF"/>
<path d="M307.432 101.77C307.432 101.77 307.929 103.541 308.88 104.345C308.88 104.345 312.597 103.35 313.475 101.448L311.543 98.9463C311.543 98.9463 311.441 100.834 307.432 101.77Z" fill="#DCEAFF"/>
<path d="M311.06 95.8005C311.06 95.8005 308.69 97.3661 305.412 97.0003C305.471 96.4882 305.544 95.9322 305.646 95.3908C306.29 95.2299 306.831 95.1421 306.831 95.1421L311.06 95.8005Z" fill="#E2915A"/>
<path d="M312.567 94.0158C311.411 97.1909 307.197 96.3861 305.398 95.874C304.886 95.7277 304.578 95.6106 304.578 95.6106C304.022 95.3619 303.847 94.3962 303.905 93.1671C304.008 90.7528 304.959 87.329 305.5 86.5096C306.32 85.2659 307.71 84.0075 311.792 85.7633C315.889 87.5045 314.045 89.9334 312.567 94.0158Z" fill="#FFB27D"/>
<path d="M315.728 92.3768C314.44 93.4303 311.66 95.3763 311.66 95.3763C311.66 95.3763 311.968 95.0105 312.348 93.957C312.392 93.84 312.406 93.6644 312.392 93.4742C312.377 92.962 312.494 92.4499 312.772 92.011C312.948 91.733 313.006 91.4549 312.787 91.2501C312.436 90.9136 311.836 91.2208 311.441 91.4988C311.177 91.6744 310.841 91.6891 310.577 91.5281C309.48 90.8404 310.695 89.626 309.802 88.6017C308.909 87.5921 305.017 87.4458 305.178 86.8166C303.847 86.0704 304.695 83.305 304.71 83.1586C304.71 83.1586 306.612 83.3196 308.983 82.7343C310.914 82.2515 313.036 83.4952 313.709 83.9927C313.709 83.8756 313.694 83.7 313.606 83.5244C313.606 83.5244 313.899 83.8171 313.899 84.1536C313.928 84.1829 313.943 84.1975 313.928 84.2121C313.928 84.2121 314.309 84.1975 314.543 84.3585C314.543 84.3585 314.382 84.2999 314.294 84.4024C314.279 84.417 314.279 84.417 314.265 84.4316C316.84 86.2313 316.796 91.4988 315.728 92.3768Z" fill="#BC3F3F"/>
<path d="M306.466 93.5472C306.466 93.5472 306.261 93.9422 305.222 93.6203C305.222 93.6203 304.344 93.3423 304.491 92.8741C304.476 92.8741 305.427 92.7717 306.466 93.5472Z" fill="white"/>
<path d="M306.173 103.804C306.173 103.804 303.846 133.17 303.876 135.614C303.905 138.058 306.451 140.647 306.451 140.647C306.451 140.647 308.47 138.423 308.865 136.097C309.26 133.756 307.739 104.111 307.739 104.111L306.173 103.804Z" fill="#2A4E96"/>
<path d="M321.8 140.648C314.733 139.638 316.752 116.256 317.308 116.168C317.864 116.081 319.898 120.353 319.898 120.353L320.088 121.304C320.63 126.718 321.42 132.951 322.605 139.521C322.693 139.945 322.385 140.326 321.8 140.648Z" fill="#DCEAFF"/>
<path d="M342.563 158.06L327.624 162.406C325.677 162.976 323.629 161.85 323.058 159.903L321.171 153.436C320.6 151.49 321.727 149.442 323.673 148.871L338.612 144.525C340.558 143.955 342.607 145.081 343.177 147.027L345.065 153.495C345.635 155.441 344.509 157.504 342.563 158.06Z" fill="#A02E2E"/>
<path d="M323.146 152.851L325.048 159.391C325.414 160.664 326.409 161.586 327.609 161.908C328.004 162.025 328.414 162.069 328.838 162.04C329.101 162.025 329.365 161.981 329.628 161.908L344.538 157.562C346.484 156.992 347.626 154.928 347.055 152.982L345.153 146.442C344.582 144.496 342.519 143.355 340.573 143.925L335.437 145.418L335.027 144.028C334.837 143.384 334.164 143.003 333.52 143.194L332.964 143.355L329.848 144.262L329.072 144.481C328.765 144.569 328.502 144.774 328.341 145.067C328.18 145.359 328.15 145.681 328.238 145.988L328.648 147.378L325.678 148.242C325.561 148.271 325.443 148.315 325.341 148.359C324.214 148.812 323.41 149.793 323.132 150.919C322.971 151.563 322.971 152.222 323.146 152.851ZM334.705 145.637L329.379 147.203L328.97 145.813C328.897 145.579 329.043 145.315 329.277 145.242L330.623 144.847L333.081 144.13L333.74 143.94C333.784 143.925 333.828 143.925 333.871 143.925C334.062 143.925 334.237 144.057 334.296 144.247L334.705 145.637Z" fill="#BC3F3F"/>
<path d="M330.243 141.467C330.243 141.467 329.775 145.344 330.653 145.286C331.531 145.227 333.652 144.818 333.784 144.145C333.93 143.472 332.16 140.37 332.16 140.37L330.243 141.467Z" fill="#FFB27D"/>
<path d="M330.345 141.452C330.345 141.452 329.686 142.272 329.628 142.93C329.569 143.574 329.248 144.715 329.555 144.788C329.847 144.861 330.403 143.369 330.403 143.369L330.345 141.452Z" fill="#FFB27D"/>
<path d="M316.503 101.931C316.503 101.931 320.249 102.824 323.219 108.53C326.19 114.222 328.531 125.723 329.936 128.751C331.355 131.78 332.423 140.881 332.423 140.881C332.423 140.881 332.203 141.335 331.443 141.496C330.857 141.628 330.243 141.569 330.243 141.569C330.243 141.569 324.668 132.644 323.863 129.425C323.424 127.683 316.811 113.783 316.811 113.783L316.503 101.931Z" fill="white"/>
<path d="M69.4725 201.107L68.9165 197.069L71.2722 195.093L72.0185 200.449L69.4725 201.107Z" fill="#FFB27D"/>
<path d="M77.315 204.721H67.6872C67.6872 204.721 67.4531 203.258 67.9652 202.146C68.4481 201.077 69.1943 200.419 69.2674 199.6C69.882 200.229 70.6282 200.638 72.0182 200.448C72.1938 200.726 73.1156 202.204 73.6863 202.614C74.3155 203.067 77.1248 202.906 77.315 204.721Z" fill="#233862"/>
<path d="M75.3838 146.457C74.7546 151.519 74.2425 156.289 73.8182 160.737C71.5795 184.441 72.0184 198.927 72.0184 198.927C72.0184 198.927 71.8575 199.351 70.4674 199.366C69.6773 199.366 68.9165 199.205 68.9165 199.205C68.9165 199.205 63.8977 183.724 64.2928 174.916C64.3367 173.862 64.4684 172.896 64.6878 172.062C65.8877 167.556 60.2397 150.319 66.3851 143.896C72.5159 137.487 75.6764 144.13 75.3838 146.457Z" fill="#F99746"/>
<path d="M75.3838 146.457C74.7546 151.519 74.2425 156.289 73.8182 160.737L64.2928 174.916C64.3367 173.862 64.4684 172.896 64.6878 172.062C65.8877 167.556 60.2397 150.319 66.3851 143.896C72.5159 137.487 75.6764 144.13 75.3838 146.457Z" fill="#ED7D2B"/>
<path d="M82.9631 98.1565C82.9631 98.1565 82.7289 97.0006 82.4656 96.1227C82.3485 95.7276 83.1533 93.167 83.7093 92.8451C84.2653 92.5232 85.7139 94.2644 85.3042 95.5813C85.0993 96.269 84.7481 98.4784 84.7481 98.4784L82.9631 98.1565Z" fill="#FFB27D"/>
<path d="M82.9629 98.1565C82.9629 98.1565 82.6556 97.4835 82.3922 97.381C82.1142 97.2786 81.8216 96.1812 81.6313 95.7423C81.6313 95.7423 81.8216 95.4643 82.1581 95.8301C82.3629 96.0495 82.8312 96.708 82.8312 96.708L82.9629 98.1565Z" fill="#FFB27D"/>
<path d="M43.2227 102.049C43.1641 102.166 43.0763 102.385 43.0032 102.59C43.0032 102.532 43.0032 102.473 43.0032 102.429C43.0032 102.019 41.4815 99.81 40.8523 99.6637C40.2231 99.532 39.3452 101.595 40.1207 102.751C40.5158 103.336 41.4961 105.356 41.4961 105.356L43.1202 104.522C43.1202 104.522 43.208 103.79 43.4421 103.614C43.6763 103.424 43.6324 102.297 43.6909 101.815C43.7055 101.815 43.4421 101.595 43.2227 102.049Z" fill="#FFB27D"/>
<path d="M53.3333 199.892C53.2016 198.59 53.1577 195.181 53.1577 195.181C53.1577 195.181 56.6401 194.069 56.5084 194.83C55.8792 198.575 56.0548 200.434 56.0548 200.434L54.6502 201.268L53.3333 199.892Z" fill="#FFB27D"/>
<path d="M72.4717 146.208C72.4717 146.208 59.0396 183.036 56.3912 199.014C56.3912 199.014 55.7767 199.439 54.6354 199.292C53.3332 199.131 52.982 198.239 52.982 198.239C52.982 198.239 50.5531 179.085 55.3816 172.443C58.7031 167.877 53.9477 147.817 61.6734 146.208C69.399 144.598 72.4717 146.208 72.4717 146.208Z" fill="#F99746"/>
<path d="M70.0867 110.784C70.0867 110.769 70.0867 110.755 70.0721 110.74C69.9989 110.418 69.9111 110.096 69.8087 109.774C69.5307 108.808 69.1942 107.887 68.8284 107.067C68.6235 106.599 68.404 106.175 68.1846 105.78C68.1553 105.721 68.1114 105.663 68.0821 105.604C67.57 104.726 67.0286 104.126 66.5458 103.936C65.6679 103.6 64.6875 103.687 64.0145 103.834C64.1608 103.629 64.4973 103.512 64.4973 103.512C64.073 103.512 63.1951 104.068 63.1951 104.068C57.0058 102.678 57.3716 111.442 57.7959 113.418C58.2202 115.407 56.2303 116.373 53.4063 118.392C48.0364 122.27 48.1388 126.367 48.1388 126.367C48.1827 126.381 48.2412 126.411 48.2998 126.44C48.5192 125.913 48.9728 124.904 49.4557 124.684C49.4411 124.728 49.046 126.03 48.9436 126.762C49.763 127.215 50.8896 127.903 52.1187 128.693C53.7575 129.747 55.5718 130.961 57.0204 131.942C56.9472 131.546 56.8887 130.976 56.9911 130.654L57.4593 132.088L57.5179 132.278C58.4397 132.907 59.1713 133.405 59.5517 133.668C59.5956 133.697 59.6249 133.712 59.6541 133.741C59.7566 133.814 59.8151 133.858 59.8151 133.858C59.698 133.346 60.2394 132.029 61.1466 130.361C61.2051 130.244 61.2783 130.127 61.3368 130.01C61.6294 129.483 61.9514 128.927 62.3025 128.357C62.4342 128.152 62.5513 127.947 62.6976 127.728C62.8 127.552 62.9171 127.391 63.0195 127.215C63.2829 126.806 63.5609 126.396 63.8389 125.986C64.5558 124.918 65.3167 123.865 66.0776 122.899C67.175 121.494 68.2431 120.265 69.1356 119.461C69.1649 119.402 69.1942 119.343 69.2234 119.27C69.3697 118.948 69.4722 118.583 69.56 118.217C69.5892 118.1 69.6039 117.997 69.6331 117.88C69.8526 116.695 69.8672 115.539 69.8526 115.261C69.9258 116.402 69.8965 117.251 69.8233 117.91C69.8087 118.056 69.7941 118.188 69.7648 118.305C69.7209 118.583 69.6624 118.817 69.6039 119.007C69.7502 118.831 69.8819 118.626 69.9989 118.407C70.0721 118.261 70.1452 118.114 70.2038 117.953C70.9207 116.124 70.7159 113.374 70.0867 110.784Z" fill="#163560"/>
<path d="M68.9312 119.651C68.9458 119.651 67.2046 120.924 65.7121 120.748C64.3075 120.587 63.1808 118.963 63.1955 118.963C63.7515 118.759 63.7954 117.954 63.2833 114.603L63.5466 114.618L67.9947 114.837C67.9947 114.837 68.0971 116.213 68.2874 117.5C68.4483 118.554 68.6678 119.578 68.9312 119.651Z" fill="#FFB27D"/>
<path d="M67.9945 114.822C67.9945 114.822 68.0969 116.197 68.2871 117.485C65.8582 117.778 64.2487 115.758 63.5464 114.617L67.9945 114.822Z" fill="#ED975D"/>
<path d="M63.0196 114.208C63.0196 114.208 61.4539 112.393 60.8979 110.725C60.5029 109.54 60.4443 104.902 65.0973 104.873C65.0973 104.873 66.4434 104.799 67.8042 105.458C68.887 105.985 70.5404 107.214 69.5308 111.413L69.3113 112.818L63.0196 114.208Z" fill="#163560"/>
<path d="M75.9399 145.505C75.9399 145.505 70.1457 148.944 62.859 147.173C62.7712 147.159 56.8599 146.208 56.8599 146.208C56.9623 145.93 57.7231 141.365 57.8256 141.116C59.1132 137.78 61.4836 119.695 63.4442 118.802C63.9417 119.343 65.3903 119.724 66.6194 119.621C68.0387 119.49 68.5069 118.89 68.3898 118.231C69.9554 118.978 71.1699 119.665 71.1699 119.665C72.6185 121.802 75.9399 145.505 75.9399 145.505Z" fill="white"/>
<path d="M68.9893 115.92C68.9893 115.92 63.2682 116.871 62.7414 113.301C62.2001 109.73 61.1027 107.448 64.7314 106.702C68.3601 105.941 69.2673 107.199 69.7355 108.355C70.2037 109.482 70.4671 115.583 68.9893 115.92Z" fill="#FFB27D"/>
<path d="M67.3215 106.219C67.3215 106.219 66.3705 110.637 64.0586 111.618C61.7468 112.598 60.6055 112.101 60.6055 112.101C60.6055 112.101 62.2296 110.359 62.2296 107.74C62.2443 107.74 65.8437 104.404 67.3215 106.219Z" fill="#163560"/>
<path d="M66.9849 106.614C66.9849 106.614 68.3017 107.375 68.7114 108.238C69.1358 109.101 69.5454 110.959 70.0722 110.813C70.0722 110.813 70.8331 107.784 69.2674 106.38C67.614 104.887 66.9849 106.614 66.9849 106.614Z" fill="#163560"/>
<path d="M84.7921 98.2441C84.558 98.1563 84.2214 97.9661 83.7678 97.9222C83.3728 97.8929 82.8753 98.01 82.8753 98.01C82.8753 98.01 81.2658 108.033 81.1487 108.56C81.0317 109.086 74.2278 116.753 72.3988 116.71C70.7454 116.68 68.7847 117.953 68.4189 118.202C68.4189 118.202 72.2671 126.352 72.472 127.888C72.6768 129.556 74.6814 155.206 74.6814 155.206C74.6814 155.206 74.5644 156.406 76.7884 155.762C79.0125 155.118 79.5685 154.592 79.5685 154.592C79.5685 154.592 77.52 134.4 77.0957 128.122C77.0372 127.274 76.9055 126.498 76.7006 125.781C76.5104 125.094 76.6567 124.347 77.0811 123.762C79.905 119.899 84.3531 113.622 84.6019 112.291C84.953 110.345 84.7921 98.2441 84.7921 98.2441Z" fill="#2B478B"/>
<path d="M61.3516 204.721H51.7238C51.7238 204.721 51.4897 203.258 52.0018 202.146C52.4847 201.077 53.2309 200.419 53.3041 199.6C53.9186 200.229 54.6648 200.638 56.0549 200.448C56.2304 200.726 57.1523 202.204 57.7229 202.614C58.3521 203.067 61.1614 202.906 61.3516 204.721Z" fill="#233862"/>
<path d="M67.9653 128.693C67.6434 126.703 63.5025 118.685 63.5025 118.685C63.5025 118.685 60.8834 117.895 59.1569 118.524C57.4303 119.153 48.5194 114.12 48.2268 113.652C47.9342 113.183 43.1641 104.287 43.1641 104.287C43.1641 104.287 42.7691 104.053 42.1399 104.39C41.5107 104.712 41.5107 105.355 41.5107 105.355C41.5107 105.355 45.198 116.563 46.1783 118.29C46.7636 119.329 51.7385 122.972 55.6013 125.694C56.3329 126.221 56.728 127.098 56.5963 127.991C56.0841 131.825 55.9525 133.975 55.3526 140.56C54.8551 146.018 54.6648 156.567 54.6648 156.567C54.6648 156.567 58.9813 158.06 61.9515 158.264C64.9218 158.469 65.5803 155.323 65.5803 155.323C65.5803 155.323 68.3018 130.742 67.9653 128.693Z" fill="#2B478B"/>
<path d="M67.1167 114.149C67.1167 114.149 67.8044 114.559 68.6238 114.427C69.1798 114.339 69.3115 113.681 69.3115 113.681C69.3115 113.681 68.9164 113.564 68.3019 113.681C67.6874 113.813 67.1167 114.149 67.1167 114.149Z" fill="white"/>
<path d="M249.665 46.1252C249.665 46.1252 246.987 41.3699 249.665 40.4041C252.342 39.4384 253.542 40.331 253.674 41.4138C253.806 42.4965 252.65 46.769 252.65 46.769L249.665 46.1252Z" fill="#FFB27D"/>
<path d="M251.816 76.5303C246.943 77.4082 242.451 77.8179 238.413 77.9057C234.565 77.9935 231.126 77.7886 228.112 77.4375C227.307 77.3497 226.517 77.2473 225.771 77.1302C217.87 75.9304 213.509 73.8088 213.509 73.8088C213.509 73.8088 220.723 58.7086 226.546 59.2939C233.379 59.9816 244.968 66.1124 246.124 64.3858C247.426 62.4544 248.509 45.8179 248.509 45.8179C251.538 43.7401 253.352 45.9349 253.352 45.9349C253.352 45.9349 259.263 75.1842 251.816 76.5303Z" fill="#F99746"/>
<path d="M251.815 76.5302C246.943 77.4081 242.451 77.8178 238.413 77.9056C234.564 77.9934 231.126 77.7885 228.112 77.4374C226.297 71.6578 224.981 65.7465 228.638 69.302C235.091 75.5937 251.815 76.5302 251.815 76.5302Z" fill="#ED7D2B"/>
<path d="M212.968 198.443C212.968 198.443 212.456 204.443 213.714 205.072L229.956 205.042C229.956 205.042 229.956 203.17 227.351 202.745C224.747 202.336 220.167 200.799 219.391 197.405C218.601 193.995 212.968 198.443 212.968 198.443Z" fill="#233862"/>
<path d="M224.893 125.796C224.82 129.718 224.629 133.771 224.249 137.414C222.493 154.68 221.879 175.545 221.63 179.569C221.191 186.548 219.815 197.698 219.815 197.698C219.815 197.698 217.079 200.287 211.753 199.058C211.753 199.058 207.334 182.992 206.354 166.078C206.339 165.8 206.325 165.522 206.31 165.244C206.193 163.005 206.076 160.445 205.959 157.694C205.14 139.228 204.262 111.793 204.262 111.793L224.644 107.009C224.615 106.98 225.083 116.007 224.893 125.796Z" fill="#2A4E96"/>
<path d="M224.893 125.796C219.728 134.707 209.88 151.124 205.944 157.679C205.125 139.214 204.247 111.779 204.247 111.779L224.629 106.994C224.615 106.98 225.083 116.007 224.893 125.796Z" fill="#233862"/>
<path d="M173.286 108.53C173.286 108.53 169.965 112.437 169.672 113.505C169.379 114.573 168.838 118.48 169.131 119.651C169.409 120.821 171.618 116.388 172.423 115.919C173.227 115.451 171.823 117.69 172.101 118.056C172.379 118.436 173.959 116.753 174.574 116.183C175.188 115.612 175.13 112.554 175.876 110.754C176.607 108.94 173.286 108.53 173.286 108.53Z" fill="#FFB27D"/>
<path d="M172.51 191.625C172.51 191.625 169.613 194.259 170.184 196.132C170.754 198.005 173.359 199.248 173.71 201.546C174.061 203.843 175.466 205.086 176.739 205.086C178.012 205.086 182.782 205.086 182.782 205.086C182.782 205.086 183.718 203.477 181.465 202.994C179.212 202.511 178.363 199.819 178.495 197.317C178.641 194.815 178.29 191.493 178.29 191.493L173.491 190.381L172.51 191.625Z" fill="#233862"/>
<path d="M221.411 112.188C221.411 112.188 202.331 152.997 192.191 170.906C182.036 188.816 178.861 193.805 178.861 193.805C178.861 193.805 173.052 191.508 172.511 189.957C172.511 189.957 176.388 155.382 183.192 146.954C187.04 142.198 191.547 127.903 191.752 122.899C191.957 117.895 196.419 105.97 196.419 105.97L221.411 112.188Z" fill="#2A4E96"/>
<path d="M226.985 114.12C226.985 114.12 219.406 119.197 208.666 118.714C203.955 118.509 194.605 117.178 193.098 113.432C192.747 112.554 193.01 111.442 193.537 109.716C194.912 105.267 198.131 96.7809 197.166 77.9789C197.078 76.223 197.122 74.5843 197.297 73.0479C198.307 63.7859 203.618 58.2989 208.754 56.4992C221.264 52.1242 225.434 58.1819 225.434 58.1819C225.434 58.1819 230.965 62.5568 231.799 71.7164C233.453 90.0063 226.985 114.12 226.985 114.12Z" fill="#F99746"/>
<path d="M212.397 55.4459C212.397 55.4459 218.133 58.9429 224.366 57.948C224.366 57.948 225.595 57.6407 224.995 56.1921C225.375 55.0216 225.332 55.124 225.551 54.2607C226.092 52.2708 226.268 51.1148 226.268 51.1148L222.727 47.3983L219.376 43.8428C218.455 52.3439 212.397 55.4459 212.397 55.4459Z" fill="#FFB27D"/>
<path d="M218.85 47.0762C218.85 47.0762 220.766 52.212 225.551 54.2751C226.092 52.2851 226.458 50.1928 226.458 50.1928L222.742 47.4127L218.85 47.0762Z" fill="#ED985F"/>
<path d="M230.219 50.9391C230.219 50.9391 219.259 52.3145 218.484 45.5692C217.708 38.8385 215.777 34.4782 222.742 33.3222C229.707 32.1663 231.36 34.5806 232.179 36.7754C232.999 38.9555 233.057 50.4123 230.219 50.9391Z" fill="#FFB27D"/>
<path d="M215.031 32.2249C214.943 32.1078 214.709 32.0054 214.211 31.9615C214.211 31.9615 214.621 31.7274 215.163 31.7274C215.294 31.025 215.719 29.796 216.948 29.5326C216.948 29.5326 216.275 29.8545 216.172 30.6007C217.635 29.2107 220.693 28.2742 229.004 29.2399C239.978 30.5276 236.086 37.4338 234.623 38.224C233.16 39.0141 229.663 36.5705 227.014 36.6876C224.351 36.8047 223.708 40.609 222.786 41.1064C221.864 41.6039 222.259 40.6821 221.059 40.0822C219.859 39.4823 219.669 41.5015 219.976 42.8184C220.284 44.1499 218.542 45.8179 218.542 45.8179C218.542 45.8179 218.542 45.8179 216.918 43.9304C215.294 42.0429 213.992 34.2733 214.826 32.6492C214.884 32.5175 214.958 32.3712 215.031 32.2249Z" fill="#2C3A64"/>
<path d="M248.509 42.9793L229.897 43.1402L229.78 40.3455L248.318 38.9116L248.509 42.9793Z" fill="#2A4E96"/>
<path d="M262.555 43.4479L242.29 43.7405L242.07 38.6486L262.262 37.083L262.555 43.4479Z" fill="#2A4E96"/>
<path d="M276.207 43.8426L259.131 43.8572L258.824 36.9948L275.827 35.4438L276.207 43.8426Z" fill="#233862"/>
<path d="M276.455 44.9987C276.982 44.9694 277.392 44.5304 277.363 44.0037L276.968 35.1806C276.938 34.6539 276.499 34.2442 275.973 34.2734C275.446 34.3027 275.036 34.7417 275.065 35.2684L275.46 44.0915C275.49 44.6182 275.929 45.0279 276.455 44.9987Z" fill="#233862"/>
<path d="M229.838 43.7406C229.37 43.7552 228.975 43.404 228.946 42.9358L228.843 40.6386C228.829 40.1704 229.18 39.7753 229.648 39.746C230.116 39.7314 230.511 40.0826 230.541 40.5508L230.643 42.848C230.672 43.3162 230.306 43.7113 229.838 43.7406Z" fill="#2A4E96"/>
<path d="M193.537 109.716C194.912 105.268 198.131 96.7811 197.165 77.979C197.078 76.2232 197.121 74.5844 197.297 73.0481C201.409 72.6969 207.715 77.145 207.715 77.145C207.715 77.145 203.823 100.776 193.537 109.716Z" fill="#ED7D2B"/>
<path d="M212.397 55.4458C212.397 55.4458 201.833 57.2602 196.331 63.9908C190.83 70.7215 181.963 80.1884 179.87 83.5098C177.778 86.8313 171.955 109.423 171.955 109.423C171.955 109.423 172.335 110.155 173.945 110.579C175.481 110.989 176.593 110.359 176.593 110.359C176.593 110.359 184.304 97.1761 187.201 90.5917C188.401 87.8555 209.237 77.0133 217.079 78.1399C220.152 78.5643 212.397 55.4458 212.397 55.4458Z" fill="#F99746"/>
<path d="M248.392 38.107C248.392 38.107 250.66 39.4971 252.02 38.9118C253.381 38.3265 253.264 37.7851 253.264 37.7851C253.264 37.7851 249.167 36.6438 248.392 38.107Z" fill="#FFB27D"/>
<path d="M222.64 62.8056C222.64 62.8056 218.001 92.0694 185.123 100.585L181.539 107.652L187.83 108.721C187.83 108.721 225.259 97.8783 224.761 62.2935L222.64 62.8056Z" fill="#BC3F3F"/>
<path d="M221.923 58.1382L220.416 58.2845V60.4939L222.64 62.8058L224.776 62.2937V59.2502L223.239 58.1382H221.923Z" fill="#A02E2E"/>
<path d="M215.967 52.3291C215.967 52.3291 214.504 52.6656 211.139 55.4457C211.139 55.4457 214.475 62.5422 221.527 63.3908C221.527 63.3908 221.41 60.0987 221.922 58.1526C221.922 58.138 216.348 56.148 215.967 52.3291Z" fill="#ED7D2B"/>
<path d="M221.922 58.1379C221.922 58.1379 225.361 59.9669 225.61 62.8055C225.61 62.8055 226.926 60.7278 226.546 59.2792C226.166 57.8306 224.98 56.1772 224.98 56.1772C224.98 56.1772 225.112 57.9331 221.922 58.1379Z" fill="#ED7D2B"/>
</svg>
