<svg width="430" height="226" viewBox="0 0 430 226" fill="none" xmlns="http://www.w3.org/2000/svg">
<path d="M41.1792 223.633H413.047C443.874 203.871 428.014 144.416 402.266 132.357C374.56 119.377 418.566 74.5052 375.865 59.9499C347.988 50.445 303.656 60.8011 309.628 35.3649C317.899 0.0833312 243.846 -4.07328 169.836 2.73619C92.5339 9.84357 87.2708 14.5535 51.592 39.0959C14.9344 64.3051 15.899 138.67 3.99664 171.611C-15.0415 224.271 40.0585 223.15 41.1792 223.633Z" fill="#EAFCFC"/>
<path d="M262.913 145.522H99.8119C97.9676 145.522 96.4639 144.033 96.4639 142.174V47.0404C96.4639 45.1961 97.9534 43.6924 99.8119 43.6924H262.927C264.771 43.6924 266.275 45.182 266.275 47.0404V142.189C266.261 144.033 264.757 145.522 262.913 145.522Z" fill="#F47458"/>
<path d="M263.409 143.423H99.3291V50.2606C99.3291 48.4164 100.819 46.9126 102.677 46.9126H260.075C261.919 46.9126 263.423 48.4022 263.423 50.2606V143.423H263.409Z" fill="#13375B"/>
<path d="M270.9 141.891H92.8887V145.537H270.9V141.891Z" fill="#B75742"/>
<path d="M65.7361 23.9731H41.0234V57.5949H65.7361V23.9731Z" fill="#6EA7CE"/>
<path d="M62.0903 28.2007H44.6836V53.3673H62.0903V28.2007Z" fill="#DDF0FC"/>
<path d="M72.8717 69.9512H33.7314V103.573H72.8717V69.9512Z" fill="#C5DDF9"/>
<path d="M69.0411 74.1787H37.5615V99.3454H69.0411V74.1787Z" fill="#DDF0FC"/>
<path d="M344.513 89.2308C356.602 89.2308 366.402 79.4369 366.402 67.3554C366.402 55.2739 356.602 45.48 344.513 45.48C332.423 45.48 322.623 55.2739 322.623 67.3554C322.623 79.4369 332.423 89.2308 344.513 89.2308Z" fill="#355389"/>
<path d="M344.539 86.6207C355.187 86.6065 363.807 77.9696 363.792 67.3298C363.778 56.69 355.135 48.0762 344.487 48.0904C333.84 48.1047 325.22 56.7415 325.234 67.3813C325.248 78.0212 333.891 86.6349 344.539 86.6207Z" fill="white"/>
<path d="M327.166 67.0534V67.5073H333.11V67.0534H327.166Z" fill="#C5DDF9"/>
<path d="M355.958 67.0612V67.5151H361.902V67.0612H355.958Z" fill="#C5DDF9"/>
<path d="M344.725 50.1475H344.271V56.0916H344.725V50.1475Z" fill="#C5DDF9"/>
<path d="M344.725 78.8042H344.271V84.7483H344.725V78.8042Z" fill="#C5DDF9"/>
<path d="M345.052 67.3555C345.052 67.6534 344.811 67.8946 344.513 67.8946C344.215 67.8946 343.974 67.6534 343.974 67.3555C343.974 67.0576 344.215 66.8164 344.513 66.8164C344.811 66.8306 345.052 67.0718 345.052 67.3555Z" fill="#B0C1EC"/>
<path d="M344.513 67.5965C344.456 67.5965 344.385 67.5681 344.343 67.5256L334.682 57.8788C334.583 57.7795 334.583 57.6377 334.682 57.5383C334.781 57.439 334.923 57.439 335.022 57.5383L344.683 67.1851C344.783 67.2844 344.783 67.4263 344.683 67.5256C344.641 67.5823 344.584 67.5965 344.513 67.5965Z" fill="#B0C1EC"/>
<path d="M347.619 77.1155C347.577 77.1013 347.548 77.0588 347.534 77.0162L344.413 67.5964C344.385 67.5113 344.427 67.412 344.526 67.3695C344.612 67.3411 344.711 67.3837 344.753 67.483L347.874 76.9027C347.903 76.9878 347.86 77.0871 347.761 77.1297C347.704 77.1297 347.662 77.1297 347.619 77.1155Z" fill="#B0C1EC"/>
<path d="M312.849 121.448C312.849 122.881 314.012 124.03 315.431 124.03C316.863 124.03 318.013 122.867 318.013 121.448C318.013 120.015 316.849 118.866 315.431 118.866C313.998 118.866 312.849 120.03 312.849 121.448Z" fill="#F7CC7F"/>
<path d="M308.551 150.686H308.593C308.849 150.686 309.047 150.488 309.047 150.232V148.076C309.047 147.821 308.849 147.622 308.593 147.622H308.551C308.295 147.622 308.097 147.821 308.097 148.076V150.232C308.097 150.488 308.295 150.686 308.551 150.686Z" fill="#B75742"/>
<path d="M303.557 115.433C304.351 114.383 305.245 113.816 306.21 113.716C307.699 113.575 308.891 114.61 308.905 114.624L309.501 113.958C309.444 113.901 308.012 112.653 306.125 112.837C304.905 112.95 303.798 113.646 302.848 114.894L303.557 115.433Z" fill="#50BFA5"/>
<path d="M311.118 113.901L313.615 116.398C314.239 117.022 314.239 118.029 313.615 118.653L313.487 118.781C312.863 119.405 311.856 119.405 311.232 118.781L308.735 116.284C308.111 115.66 308.111 114.653 308.735 114.028L308.862 113.901C309.487 113.277 310.494 113.277 311.118 113.901Z" fill="#B75742"/>
<path d="M319.446 116.766L310.749 125.463C308.352 123.065 308.352 119.164 310.749 116.766C313.147 114.369 317.048 114.369 319.446 116.766Z" fill="#F47458"/>
<path d="M293.173 132.003L301.897 114.227L304.621 115.561L295.897 133.336L293.173 132.003ZM302.337 115.475L294.435 131.577L295.485 132.088L303.387 115.986L302.337 115.475Z" fill="#B75742"/>
<path d="M292.577 133.138L295.443 132.159L301.841 150.899L298.975 151.878L292.577 133.138ZM294.861 133.336L293.755 133.719L299.543 150.686L300.649 150.303L294.861 133.336Z" fill="#B75742"/>
<path d="M310.509 126.343L310.537 126.371C310.707 126.541 310.991 126.541 311.161 126.371L320.354 117.178C320.524 117.008 320.524 116.724 320.354 116.554L320.326 116.526C320.155 116.355 319.872 116.355 319.701 116.526L310.509 125.718C310.338 125.889 310.338 126.172 310.509 126.343Z" fill="#96D9C9"/>
<path d="M294.88 135.127C296.069 134.846 296.806 133.654 296.525 132.465C296.244 131.275 295.052 130.539 293.863 130.82C292.673 131.1 291.937 132.292 292.218 133.482C292.498 134.671 293.69 135.408 294.88 135.127Z" fill="#F47458"/>
<path d="M312.353 149.083H297.528C295.939 149.083 294.648 150.374 294.648 151.963V152.119H315.219V151.963C315.233 150.374 313.942 149.083 312.353 149.083Z" fill="#50BFA5"/>
<path d="M366.658 130.868H365.708C365.708 130.868 364.275 131.35 362.785 131.577C361.296 131.818 357.139 132.613 352.656 132.769C351.124 132.825 349.549 132.84 348.145 132.84C347.96 132.84 347.776 132.84 347.592 132.84C347.407 132.84 347.223 132.84 347.038 132.84C345.62 132.84 344.045 132.825 342.527 132.769C338.044 132.613 333.888 131.818 332.398 131.577C330.908 131.336 329.476 130.868 329.476 130.868H328.525C327.305 130.868 326.369 132.116 326.525 133.521L330.937 174.647C331.05 175.768 331.845 176.633 332.809 176.704L346.045 177.725C346.655 177.768 347.223 177.498 347.62 177.016C348.017 177.484 348.585 177.768 349.195 177.725L362.431 176.704C363.395 176.633 364.19 175.768 364.303 174.647L368.715 133.521C368.814 132.102 367.878 130.868 366.658 130.868Z" fill="#13375B"/>
<path d="M364.033 224.81H365.834L362.969 162.234H361.167L364.033 224.81Z" fill="#13375B"/>
<path d="M331.05 224.81H329.021L332.242 162.234H334.256L331.05 224.81Z" fill="#13375B"/>
<path d="M366.658 131.932H365.708C365.708 131.932 364.275 132.414 362.785 132.641C361.296 132.882 357.139 133.677 352.656 133.833C351.124 133.889 349.549 133.904 348.145 133.904C347.96 133.904 347.776 133.904 347.592 133.904C347.407 133.904 347.223 133.904 347.038 133.904C345.62 133.904 344.045 133.889 342.527 133.833C338.044 133.677 333.888 132.882 332.398 132.641C330.908 132.4 329.476 131.932 329.476 131.932H328.525C327.305 131.932 326.369 133.18 326.525 134.584L330.937 175.711C331.05 176.832 331.845 177.697 332.809 177.768L346.045 178.789C346.655 178.832 347.223 178.562 347.62 178.08C348.017 178.548 348.585 178.832 349.195 178.789L362.431 177.768C363.395 177.697 364.19 176.832 364.303 175.711L368.715 134.584C368.814 133.18 367.878 131.932 366.658 131.932Z" fill="#355389"/>
<path d="M283.213 155.368H280.858V224.796H283.213V155.368Z" fill="#001333"/>
<path d="M415.913 155.368H413.558V224.796H415.913V155.368Z" fill="#001333"/>
<path d="M419.062 151.935H276.418V155.368H419.062V151.935Z" fill="#F8C48B"/>
<path d="M413.558 160.617H283.228V193.558H413.558V160.617Z" fill="#F8C48B"/>
<path d="M414.409 198.324H280.858V200.708H414.409V198.324Z" fill="#001333"/>
<path d="M389.598 147.282H388.817C388.945 147.182 389.101 147.125 389.286 147.125H408.976C410.012 147.125 410.835 147.948 410.835 148.956V150.119C410.835 151.126 409.998 151.949 408.976 151.949H389.513L389.598 147.282Z" fill="#13375B"/>
<path d="M400.776 147.126C401.754 147.126 402.563 147.906 402.563 148.87V150.19C402.563 151.154 401.769 151.935 400.776 151.935H388.519V151.637H388.575L391.696 151.353L392.321 148.927C392.321 148.927 391.1 147.594 391.03 147.551C390.944 147.523 388.575 147.409 388.575 147.409H388.519V147.111H400.776V147.126Z" fill="#0E293F"/>
<path d="M389.313 149.524C389.313 148.105 388.562 147.424 388.562 147.424H400.521C401.429 147.424 402.152 148.148 402.152 149.027V150.035C402.152 150.928 401.414 151.638 400.521 151.638H388.562C388.562 151.638 389.313 151.311 389.313 149.524Z" fill="#F4F4F4"/>
<path d="M402.152 149.027V150.034C402.152 150.162 402.138 150.289 402.11 150.417C401.712 149.453 400.932 148.516 399.457 148.218C396.024 147.523 388.562 147.41 388.562 147.41H400.521C401.429 147.424 402.152 148.147 402.152 149.027Z" fill="#DAEEF7"/>
<path d="M411.656 143.423H412.437C412.309 143.352 412.153 143.295 411.969 143.295H392.278C391.242 143.295 390.405 143.947 390.405 144.742V145.664C390.405 146.458 391.242 147.111 392.278 147.111H411.756L411.656 143.423Z" fill="#50BFA5"/>
<path d="M400.463 143.309C399.484 143.309 398.676 143.933 398.676 144.699V145.735C398.676 146.501 399.47 147.125 400.463 147.125H412.72V146.898H412.664L409.543 146.671L408.918 144.756C408.918 144.756 410.138 143.692 410.209 143.664C410.294 143.635 412.664 143.55 412.664 143.55H412.72V143.323H400.463V143.309Z" fill="#3C8F7C"/>
<path d="M411.941 145.21C411.941 144.089 412.693 143.536 412.693 143.536H400.733C399.826 143.536 399.088 144.104 399.088 144.813V145.622C399.088 146.331 399.826 146.898 400.733 146.898H412.693C412.678 146.898 411.941 146.629 411.941 145.21Z" fill="#F4F4F4"/>
<path d="M399.088 144.813V145.622C399.088 145.721 399.102 145.835 399.13 145.934C399.528 145.168 400.308 144.43 401.783 144.189C405.216 143.636 412.693 143.551 412.693 143.551H400.733C399.811 143.536 399.088 144.118 399.088 144.813Z" fill="#DAEEF7"/>
<path d="M410.181 145.196L409.429 146.387L408.578 145.196H410.181Z" fill="#F47458"/>
<path d="M399.087 145.196H411.926C411.926 145.196 411.926 145.111 411.926 145.097C411.926 145.082 399.073 145.097 399.073 145.097L399.087 145.196Z" fill="#DAEEF7"/>
<path d="M391.072 149.636L391.824 150.828L392.675 149.636H391.072Z" fill="#50BFA5"/>
<path d="M402.151 149.636H389.312C389.312 149.636 389.312 149.551 389.312 149.537C389.312 149.523 402.165 149.537 402.165 149.537L402.151 149.636Z" fill="#DAEEF7"/>
<path d="M391.668 139.621H391.044C391.143 139.55 391.271 139.493 391.413 139.493H406.961C407.77 139.493 408.436 140.146 408.436 140.94V141.862C408.436 142.657 407.77 143.309 406.961 143.309H391.583L391.668 139.621Z" fill="#F47458"/>
<path d="M400.492 139.508C401.272 139.508 401.896 140.132 401.896 140.884V141.919C401.896 142.686 401.272 143.296 400.492 143.296H390.816V143.069H390.859L393.313 142.842L393.81 140.926C393.81 140.926 392.845 139.862 392.788 139.848C392.732 139.834 390.859 139.735 390.859 139.735H390.816V139.508H400.492Z" fill="#B75742"/>
<path d="M391.441 141.395C391.441 140.274 390.845 139.735 390.845 139.735H400.293C401.002 139.735 401.584 140.302 401.584 140.997V141.792C401.584 142.487 401.002 143.054 400.293 143.054H390.845C390.859 143.069 391.441 142.813 391.441 141.395Z" fill="#F4F4F4"/>
<path d="M401.598 141.012V141.806C401.598 141.905 401.584 142.019 401.556 142.104C401.244 141.338 400.634 140.6 399.471 140.373C396.761 139.82 390.859 139.735 390.859 139.735H400.307C401.017 139.735 401.598 140.302 401.598 141.012Z" fill="#DAEEF7"/>
<path d="M398.108 141.323L398.789 142.501L399.385 141.323H398.108Z" fill="#13375B"/>
<path d="M401.598 141.323H391.44C391.44 141.323 391.44 141.238 391.44 141.224C391.44 141.21 401.598 141.224 401.598 141.224V141.323Z" fill="#DAEEF7"/>
<path d="M363.162 151.962H385.548V144.117H363.162V151.962Z" fill="#F4F4F4"/>
<path d="M363.162 145.691H385.548V145.564H363.162V145.691Z" fill="#D3E5F4"/>
<path d="M363.162 146.987H385.548V146.86H363.162V146.987Z" fill="#D3E5F4"/>
<path d="M363.162 148.284H385.548V148.156H363.162V148.284Z" fill="#D3E5F4"/>
<path d="M363.162 149.58H385.548V149.452H363.162V149.58Z" fill="#D3E5F4"/>
<path d="M374.517 146.984C374.517 146.984 363.99 147.892 362.671 149.026C362.671 149.026 362.742 147.679 363.167 146.856L366.473 146.984H374.517Z" fill="#D3E5F4"/>
<path d="M380.148 146.984L378.999 148.814L377.708 146.984H380.148Z" fill="#F47458"/>
<path d="M374.786 148.275L373.637 150.105L372.36 148.275H374.786Z" fill="#466EB6"/>
<path d="M363.162 150.862H385.548V150.735H363.162V150.862Z" fill="#D3E5F4"/>
<path d="M368.842 149.58L367.693 151.395L366.402 149.58H368.842Z" fill="#50BFA5"/>
<path d="M380.22 144.132V148.019V148.076V151.963H385.554V148.076V148.019V144.132H380.22Z" fill="#D3E5F4"/>
<path d="M215.885 95.4868C215.885 95.4868 212.863 96.8061 211.203 107.318C211.203 107.318 213.714 108.992 213.757 107.928C213.813 106.864 215.885 95.4868 215.885 95.4868Z" fill="#B75742"/>
<path d="M222.68 70.9729C221.772 73.3278 222.935 75.9665 225.276 76.8886C227.631 77.7965 230.269 76.6333 231.192 74.2925C232.1 71.9376 230.936 69.2989 228.595 68.3768C226.241 67.4547 223.602 68.6179 222.68 70.9729Z" fill="#F8C48B"/>
<path opacity="0.3" d="M229.078 76.6616C227.943 77.2575 226.567 77.3851 225.276 76.8886C222.921 75.9807 221.757 73.3278 222.68 70.9729C222.765 70.7459 222.878 70.5189 222.992 70.3203C223.133 70.3629 223.275 70.4054 223.417 70.448C226.496 71.4694 228.482 73.9095 229.078 76.6616Z" fill="#B75742"/>
<path d="M211.259 80.0097C212.11 84.1095 215.983 86.8901 219.998 86.6915C224.013 86.4928 227.474 83.3718 227.758 79.2152C228.084 74.3918 224.126 70.0934 218.863 70.3487C213.614 70.6041 210.266 75.243 211.259 80.0097Z" fill="#F8C48B"/>
<path d="M196.094 111.489C196.094 111.489 206.592 114.781 209.572 115.22C209.827 114.185 212.125 108.51 212.338 107.531C214.125 108.538 216.409 107.318 218.239 108.226C217.317 111.475 215.246 122.186 214.423 122.668C211.898 124.129 195.882 115.305 195.697 115.234C196.378 113.49 196.094 111.489 196.094 111.489Z" fill="#F38B80"/>
<path d="M211.004 110.964C211.004 110.964 209.486 114.454 209.656 114.426C209.826 114.397 211.202 114.426 211.202 114.426V111.532L211.004 110.964Z" fill="#B75742"/>
<path d="M208.337 224.101C209.288 223.406 210.054 222.938 213.075 221.476C213.274 221.377 213.997 220.923 214.253 220.767C214.905 220.37 215.572 219.731 216.14 219.093C216.679 218.483 216.934 216.554 217.062 215.007C216.75 211.56 211.756 156.219 210.692 150.218C209.6 144.033 211.259 134.599 211.259 134.599L215.118 133.138L222.453 158.531L221.871 177.867C221.871 177.867 223.587 183.443 223.814 186.776C224.027 190.11 221.318 217.135 221.318 217.135C221.318 218.1 221.36 218.98 221.459 219.519C221.658 220.526 222.765 222.611 222.254 223.562C221.743 224.512 221.162 224.753 221.162 224.753L207.997 224.966C207.287 224.98 207.755 224.526 208.337 224.101Z" fill="#F48C7F"/>
<path d="M228.326 132.627C228.326 132.627 232.894 139.522 233.986 145.239C235.078 150.956 233.192 168.49 235.277 175.966C236.412 180.01 240.71 186.266 241.363 191.501C242.015 196.735 244.285 211.83 244.285 211.83C244.626 213.419 245.165 215.376 245.874 216.284C246.3 216.837 247.08 217.547 247.591 218.554C248.385 220.129 247.945 222.455 247.364 223.746C247.066 224.413 247.378 224.399 246.697 224.612C244.654 225.236 242.484 224.186 241.618 222.228C241.136 221.136 240.71 219.675 240.625 217.845C240.54 215.901 240.228 214.355 239.902 213.206L225.29 177.357L214.707 146.416L211.997 130.485L228.326 132.627Z" fill="#F79C8D"/>
<path d="M241.221 221.207C244.384 221.789 246.484 219.93 247.59 218.54C248.399 220.115 248.782 222.455 248.2 223.746C247.676 224.881 246.158 224.853 244.966 224.896C243.703 224.938 242.724 224.243 242.086 223.136C241.774 222.626 241.476 221.987 241.221 221.207Z" fill="#13375B"/>
<path d="M214.253 220.767C217.728 221.661 220.31 221.051 221.743 220.469C222.112 221.519 222.608 222.853 222.339 223.604C222.013 224.541 221.559 224.754 221.161 224.754C217.984 224.839 209.514 224.952 207.088 224.981C206.748 224.981 206.564 224.583 206.776 224.328C207.386 223.619 213.983 220.923 214.253 220.767Z" fill="#13375B"/>
<path d="M225.361 177.428C225.092 177.442 224.808 177.47 224.538 177.484C224.524 177.484 224.51 177.484 224.496 177.484C224.226 177.498 223.957 177.513 223.673 177.527C223.659 177.527 223.645 177.527 223.616 177.527C223.347 177.541 223.063 177.555 222.793 177.569C222.779 177.569 222.765 177.569 222.751 177.569C222.467 177.584 222.198 177.598 221.914 177.598C218.793 177.697 214.934 177.655 212.466 177.243C211.203 164.617 210.735 153.098 210.267 150.544C209.132 144.359 211.26 134.599 211.26 134.599L212.267 134.414L211.629 130.797L228.61 132.939C228.61 132.939 233.362 139.834 234.497 145.551C235.632 151.254 233.66 168.802 235.845 176.278C235.845 176.293 230.993 177.045 225.361 177.428Z" fill="#50BFA5"/>
<path d="M224.453 93.5576C224.453 93.5576 228.524 94.0258 230.964 96.6644C233.404 99.3173 227.035 120.597 226.581 123.973C226.141 127.35 230.808 136.67 230.808 136.67C230.808 136.67 214.92 139.834 210.777 137.096C210.777 137.096 210.408 111.035 210.862 108.638C211.302 106.226 214.99 96.4375 215.884 95.4728C216.764 94.5223 224.453 93.5576 224.453 93.5576Z" fill="#F47458"/>
<path d="M222.396 85.3581C222.396 85.3581 222.424 85.5426 222.481 85.8405C222.751 87.3159 223.815 92.2102 224.524 93.5579C225.389 95.1893 221.573 100.382 217.899 99.7432C216.806 99.5587 218.821 94.9765 218.722 94.4942C218.537 93.5721 218.282 92.2953 218.027 91.0043C217.885 90.2666 217.729 89.529 217.601 88.8338C217.204 86.8477 216.892 85.2305 216.892 85.2305L222.396 85.3581Z" fill="#F7A491"/>
<path d="M222.495 85.8405C222.438 85.5284 222.41 85.3582 222.41 85.3582L216.905 85.2163C216.905 85.2163 217.232 86.8336 217.615 88.8197C217.756 89.5148 217.898 90.2525 218.04 90.976C218.891 90.8483 219.771 90.4369 220.665 89.6566C221.629 88.8055 222.268 87.784 222.651 86.7059C222.594 86.3796 222.537 86.0817 222.495 85.8405Z" fill="#F47458"/>
<path d="M219.09 72.278C219.09 72.278 221.331 72.5901 222.963 74.6897C224.594 76.7893 226.339 83.2725 222.296 86.8049C218.253 90.3373 214.266 86.3367 213.671 82.1092C213.089 77.8675 213.202 72.122 219.09 72.278Z" fill="#F7A491"/>
<path d="M212.508 81.0594C212.764 82.0809 213.43 82.776 213.998 82.6057C214.565 82.4355 214.821 81.4708 214.565 80.4494C214.31 79.428 213.643 78.7329 213.076 78.9031C212.508 79.0733 212.253 80.038 212.508 81.0594Z" fill="#F7A491"/>
<path d="M216.594 72.292C216.594 72.292 221.871 78.3496 224.354 78.6334C226.836 78.9171 227.163 82.1941 227.163 82.1941C227.163 82.1941 226.283 74.6328 223.815 73.1858C221.36 71.7246 216.594 72.292 216.594 72.292Z" fill="#F8C48B"/>
<path d="M223.545 80.1087C223.347 81.2011 223.744 82.2083 224.453 82.3502C225.148 82.492 225.886 81.726 226.085 80.6194C226.283 79.5271 225.886 78.5198 225.177 78.378C224.467 78.2361 223.744 79.0164 223.545 80.1087Z" fill="#F7A491"/>
<path d="M221.531 111.844L205.5 114.766L209.302 135.62L225.333 132.698L221.531 111.844Z" fill="#BED9EA"/>
<path d="M222.581 112.553L206.465 114.894L209.515 135.876L225.645 133.521L222.581 112.553Z" fill="#D3E5F4"/>
<path d="M223.956 113.333L207.798 115.376L210.451 136.401L226.609 134.358L223.956 113.333Z" fill="#F4F4F4"/>
<path d="M216.168 84.3081L219.998 84.0669C219.998 84.0669 219.998 85.5281 218.324 85.6841C216.267 85.8686 216.168 84.3081 216.168 84.3081Z" fill="white"/>
<path d="M235.163 116.029L227.914 116.738C227.914 116.738 229.503 122.54 229.404 123.136C229.404 123.136 218.849 126.059 214.423 126.853C214.423 126.853 212.408 125.718 211.6 125.349C210.791 124.98 208.606 124.597 208.124 124.526C207.642 124.47 207.812 124.995 208.223 125.179C208.635 125.363 209.713 125.874 210.011 126.484C210.011 126.484 209.145 126.583 208.677 126.371C208.209 126.172 207.585 125.732 207.571 125.505C207.557 125.278 207.457 124.739 207.301 124.768C207.259 124.782 207.216 124.952 207.159 125.136C207.117 125.321 207.06 125.491 207.018 125.676C206.947 126.002 206.847 126.47 206.819 126.683C206.734 127.165 207.032 128.499 207.074 128.967C207.145 129.832 207.401 130.215 207.855 130.428C208.592 130.683 209.358 130.839 210.507 130.967C212.607 131.18 214.536 130.584 215.388 130.485C216.225 130.385 229.673 129.052 229.673 129.052C229.673 129.052 235.021 128.286 235.376 127.364C235.731 126.442 235.163 116.029 235.163 116.029Z" fill="#F7A491"/>
<path d="M230.213 95.8986C230.213 95.8986 232.156 96.8207 233.873 100.821C235.504 104.609 235.589 123.477 235.589 123.477L229.22 122.413L226.24 113.632C223.9 108.354 224.51 102.197 227.914 97.53C228.822 96.2958 229.659 95.5439 230.213 95.8986Z" fill="#F47458"/>
<path d="M197.059 111.901V115.674C196.264 115.476 192.093 113.958 191.001 113.703L192.505 109.432C192.661 109.163 192.675 108.837 192.519 108.553C192.42 108.354 192.306 108.184 192.235 108.113C192.051 107.914 191.838 107.645 191.654 107.446C191.469 107.248 191.838 106.51 192.108 106.283C192.377 106.07 192.973 107.191 193.257 107.489C194.108 108.368 195.81 111.035 196.094 111.475L197.059 111.901Z" fill="#F48C7F"/>
<path d="M193.115 118.37L194.42 118.171L188.022 79.584L187.71 79.6265L187.412 79.6691L193.115 118.37Z" fill="#D3E5F4"/>
<path d="M189.838 112.567C189.781 112.312 189.753 112.042 189.753 111.773C189.753 111.475 189.795 111.092 189.881 110.95C189.937 110.865 189.909 110.652 189.909 110.425C189.909 110.354 189.909 110.283 189.923 110.212C189.966 110.014 190.051 109.829 190.164 109.645C190.264 109.475 190.335 109.29 190.391 108.992C190.434 108.765 190.533 108.538 190.689 108.354C190.845 108.169 190.987 108.113 191.115 108.198C191.668 108.609 194.037 109.702 193.754 110.822C193.512 111.773 193.115 112.823 193.115 113.22C193.115 113.773 192.392 114.043 191.895 114.057C190.973 114.099 190.122 113.872 189.838 112.567Z" fill="#F7A491"/>
<path d="M217.913 99.7572C216.835 99.5727 218.807 95.0615 218.736 94.5224L224.41 93.5151L224.538 93.5861C225.403 95.1891 221.587 100.381 217.913 99.7572Z" fill="#D3E5F4"/>
<path d="M224.538 93.572C224.481 93.3734 223.913 91.3589 223.913 91.3589L219.828 93.8557L218.225 92.6499L219.005 96.4234L219.771 95.3027L220.778 96.5653L224.538 93.572Z" fill="#F4F4F4"/>
<path d="M235.589 123.732L229.006 122.64C229.006 122.64 228.453 121.008 228.538 120.966L235.702 121.633L235.589 123.732Z" fill="#D3E5F4"/>
<path d="M54.6279 204.992H55.3089C55.5359 202.708 55.9756 200.182 56.7559 197.53C59.7208 187.528 58.4157 186.237 63.4235 179.981C68.4171 173.725 68.8001 160.773 68.8001 160.773C68.8001 160.773 71.2118 146.047 68.8001 139.564C66.3884 133.081 66.204 126.598 60.3734 119.746C60.3734 119.746 59.2669 128.91 57.8766 133.081C56.4863 137.252 55.167 141.224 56.2026 151.225C57.2382 161.227 57.8766 162.064 58.1036 164.646C58.3448 167.242 57.9759 178.165 58.5292 179.967C59.0825 181.769 55.2947 194.267 55.011 199.643C54.9117 201.275 54.7698 203.119 54.6279 204.992Z" fill="#215E4B"/>
<path d="M56.7698 204.992C57.7344 202.764 59.4368 200.551 62.4018 199.232C70.1759 195.756 75.4249 195.841 79.0424 187.5C82.6599 179.172 82.6599 167.781 83.9083 165.411C83.9083 165.411 80.5745 164.858 77.2407 170.831C73.9069 176.803 71.6513 181.243 69.7219 184.719C67.7926 188.195 65.0121 187.216 62.6571 189.855C60.6852 192.068 58.8552 197.217 58.16 199.828C57.9331 200.679 57.6068 201.487 57.167 202.254C56.7698 202.949 56.3158 203.8 56.0321 204.396C55.9753 204.523 55.9044 204.736 55.8477 204.992H56.7698Z" fill="#3C8F7C"/>
<path d="M34.8095 165.497C34.2563 172.633 38.7959 172.065 38.9803 176.605C39.1648 181.144 45.0947 188.833 47.8326 194.295C49.2655 197.132 49.7904 201.488 49.9606 204.992H52.1595C51.3083 196.097 47.6908 189.897 45.5344 184.932C42.7539 178.548 42.3425 175.626 44.6975 170.632C47.0524 165.639 43.5909 152.715 46.9531 146.955C50.3153 141.195 48.5987 132.159 47.8185 128.683C47.0382 125.207 47.9036 122.852 48.5987 119.192C49.2938 115.532 47.8185 110.212 47.8185 110.212C47.6908 114.752 44.2435 120.952 41.7467 124.938C39.2499 128.924 34.5258 139.748 35.0791 144.657C35.6323 149.565 35.3628 149.934 35.3628 149.934C33.6179 156.517 35.377 158.361 34.8095 165.497Z" fill="#215E4B"/>
<path d="M48.0457 199.204C48.3294 200.055 49.2374 202.225 50.0744 204.992H51.4221C50.8121 201.473 49.7481 197.374 47.9464 195.033C44.3289 190.309 37.108 188.28 36.2852 184.847C35.4482 181.428 36.3845 171.143 31.093 165.397C31.093 165.397 31.8307 171.796 31.093 173.498C30.3553 175.214 24.0565 183.173 27.7592 189.841C31.4618 196.508 39.8034 195.671 42.3853 197.161C44.9956 198.65 47.5917 197.813 48.0457 199.204Z" fill="#3C8F7C"/>
<path d="M44.7116 168.447C44.6123 175.299 49.9889 177.896 49.9038 181.683C49.8045 185.485 51.0104 189.557 52.0318 192.607C52.6702 194.536 52.3155 199.927 52.202 204.977H53.6916C54.0604 201.261 54.4718 195.898 54.3442 193.529C54.1597 190.294 55.6351 187.698 55.8195 182.052C56.004 176.406 57.2098 171.313 54.713 164.177C52.2162 157.042 52.6702 148.53 42.2148 140.656C42.2148 140.656 40.3564 148.984 41.7466 153.523C43.1369 158.077 44.8109 161.595 44.7116 168.447Z" fill="#3C8F7C"/>
<path d="M44.7121 168.447C44.6128 175.299 49.9894 177.896 49.9043 181.683C49.805 185.485 51.0108 189.557 52.0323 192.607C52.6706 194.536 52.316 199.927 52.2025 204.977H52.8267C52.9118 203.928 52.9969 203.261 52.9969 203.261L53.309 190.479C53.309 190.479 52.6848 180.477 51.5783 172.334C50.4717 164.191 42.2294 140.656 42.2294 140.656C42.2294 140.656 40.371 148.984 41.7613 153.523C43.1374 158.077 44.8114 161.595 44.7121 168.447Z" fill="#327F6B"/>
<path d="M55.3231 199.147H54.3301H40.9948C40.016 199.147 39.2925 200.069 39.5195 201.02L44.7542 223.065C44.9103 223.746 45.5345 224.229 46.2296 224.229H54.3442H55.3373H63.4519C64.1612 224.229 64.7712 223.746 64.9273 223.065L70.1621 201.02C70.3891 200.069 69.6656 199.147 68.6867 199.147H55.3231Z" fill="#F7CC7F"/>
<path d="M207.955 140.94H197.968V141.89H207.955V140.94Z" fill="#D3E5F4"/>
<path d="M183.823 140.94H178.518V141.89H183.823V140.94Z" fill="#D3E5F4"/>
<path d="M169.751 139.152H153.606V140.755H169.751V139.152Z" fill="#E5AD76"/>
<path d="M170.275 140.358H152.939V141.891H170.275V140.358Z" fill="#F8C48B"/>
<path d="M170.275 138.018H152.939V139.55H170.275V138.018Z" fill="#F8C48B"/>
<path d="M170.275 137.167H152.939V138.018H170.275V137.167Z" fill="#50BFA5"/>
<path d="M232.852 28.513H125.262L122.851 21.7461H235.249L232.852 28.513Z" fill="#BED9EA"/>
<path d="M235.249 20.7529H122.851V25.1791H235.249V20.7529Z" fill="#13375B"/>
<path d="M235.249 22.7534H122.851V25.1793H235.249V22.7534Z" fill="#13375B"/>
<path d="M95.5561 161.794C95.4851 173.626 105.018 183.258 116.836 183.329L117.091 140.515C105.274 140.444 95.627 149.977 95.5561 161.794ZM114.225 144.345L114.154 156.942C112.665 157.396 111.445 158.517 110.863 159.964L98.5068 159.893C99.4148 151.098 106.125 144.302 114.225 144.345ZM98.4785 163.752L110.835 163.823C111.402 165.27 112.594 166.405 114.083 166.873L114.013 179.47C105.926 179.414 99.3013 172.533 98.4785 163.752Z" fill="#F7CC7F"/>
<path d="M110.139 162.447L98.6625 162.362C98.393 162.362 98.166 162.135 98.166 161.865V161.284C98.166 161.014 98.393 160.787 98.6625 160.787L110.139 160.872C110.409 160.872 110.636 161.099 110.636 161.369V161.95C110.636 162.234 110.409 162.447 110.139 162.447Z" fill="#F47458"/>
<path d="M136.356 136.131L122.851 161.893L164.615 183.797L136.356 136.131ZM157.976 177.371L140.215 168.064L145.79 157.439L157.976 177.371ZM126.653 160.943L136.484 142.203L144.839 155.864L138.839 167.327L126.653 160.943Z" fill="#F7CC7F"/>
<path d="M430 224.072H20.5811V225.519H430V224.072Z" fill="#B75742"/>
<path d="M135.462 65.9936C135.604 65.6673 136.696 62.7875 137.547 60.5744L138.555 57.9783C138.654 57.7513 138.498 57.4817 138.172 57.4817C138.016 57.4817 137.86 57.5669 137.803 57.7087C137.746 57.8364 137.321 58.9571 136.796 60.319C136.299 61.5816 135.732 63.057 135.306 64.1494H130.312L130.539 63.4684C130.979 62.22 131.518 60.6595 132.213 59.4962C132.497 58.9571 133.079 58.5032 133.703 58.1769C133.859 58.1059 133.93 57.9783 133.93 57.8506C133.93 57.7087 133.816 57.4817 133.519 57.4817C133.462 57.4817 133.377 57.4959 133.32 57.5385C132.894 57.7513 132.526 57.9925 132.086 58.3755C131.149 58.2194 130.298 57.9783 129.504 57.7513C128.199 57.3824 127.007 57.0562 125.574 57.0562C123.886 57.0562 122.24 58.4606 122.24 60.163C122.24 61.6809 123.389 62.7165 125.262 62.7165C125.957 62.7165 126.709 62.5605 127.376 62.2767C127.532 62.2058 127.603 62.0781 127.603 61.9505C127.603 61.8086 127.489 61.5816 127.22 61.5816C127.149 61.5816 127.092 61.5958 127.021 61.61C126.44 61.837 125.83 61.9788 125.262 61.9788C123.957 61.9788 123.035 61.3972 123.035 60.1062C123.035 58.9288 124.283 57.7938 125.56 57.7938C126.851 57.7938 128 58.1201 129.234 58.4748C129.944 58.6734 130.695 58.872 131.532 59.0564L131.476 59.1557C130.724 60.4041 130.185 61.993 129.745 63.2556L129.419 64.1635H128.341C128.114 64.1635 127.943 64.3338 127.943 64.5466C127.943 64.7452 128.114 64.9154 128.341 64.9154H129.149C129.092 65.0573 129.036 65.2275 128.979 65.3836C128.099 67.8662 127.22 70.2637 124.453 70.2637C122.794 70.2637 121.914 69.2423 121.914 67.8662C121.914 66.1638 123.546 64.887 125.262 64.887C125.489 64.887 125.673 64.7168 125.673 64.504C125.673 64.3054 125.503 64.1352 125.262 64.1352C123.12 64.1635 121.105 65.724 121.105 67.852C121.105 69.6395 122.283 71.0014 124.439 71.0014C127.83 71.0014 128.794 68.3627 129.773 65.6105C129.844 65.3836 129.929 65.1566 130.029 64.9154H134.994L134.668 65.7382C133.476 68.5897 132.781 70.3772 132.781 71.427C132.781 72.7037 133.391 73.6826 134.88 73.7252C135.107 73.7252 135.292 73.5549 135.306 73.3563C135.306 73.1435 135.107 72.9733 134.895 72.9733C133.916 72.9733 133.547 72.3065 133.589 71.427C133.646 70.519 134.214 69.0862 135.462 65.9936Z" fill="#F4F4F4"/>
<path d="M159.011 65.8519C158.855 65.8519 158.699 65.9371 158.642 66.0789C157.961 67.5259 157.295 68.1927 156.486 68.1927C156.046 68.1927 155.72 68.065 155.507 67.8239C156.387 66.462 157.011 64.7454 157.011 63.6389C157.011 62.5891 156.358 61.7946 155.082 61.7663C154.117 61.7663 153.181 62.3763 152.372 63.6105C151.989 64.178 151.464 65.0291 151.124 66.0647C150.216 67.8664 149.294 69.3276 147.903 69.3276C147.52 69.3276 147.293 69.0581 147.293 68.5899C147.293 68.292 147.492 67.5543 147.875 66.4478C147.889 66.4194 147.903 66.4052 147.917 66.3768C147.932 66.3343 147.946 66.2917 147.96 66.2492C148.513 64.7738 149.067 63.3977 149.591 62.0074L150.599 59.3404C150.67 59.1418 150.556 58.9432 150.343 58.8722C150.131 58.8155 149.904 58.9006 149.818 59.0992L148.811 61.7663C148.258 63.2133 147.676 64.6887 147.151 66.0789C146.243 67.8806 145.321 69.3418 143.931 69.3418C143.548 69.3418 143.321 69.0723 143.321 68.6041C143.321 68.3062 143.52 67.5685 143.903 66.4762C143.917 66.4478 143.931 66.4194 143.945 66.4052C143.959 66.3485 143.988 66.3201 143.988 66.2634C144.541 64.788 145.094 63.4119 145.619 62.0216L146.627 59.3546C146.697 59.156 146.584 58.9574 146.371 58.8864C146.158 58.8297 145.931 58.9148 145.846 59.1134L144.839 61.7804C144.286 63.2275 143.704 64.7028 143.179 66.0931C143.165 66.1073 143.165 66.1357 143.165 66.1499C142.087 68.3771 140.867 69.3844 139.292 69.3418C138.143 69.3134 137.519 68.6892 137.561 67.6962C137.576 67.3273 137.632 67.001 137.774 66.5471C139.916 66.0789 142.782 64.9582 142.782 63.0998C142.782 62.2628 142.101 61.8088 141.151 61.8088C138.881 61.8088 136.88 65.4547 136.767 67.6962C136.724 69.129 137.689 70.0937 139.292 70.0937C140.541 70.0937 141.605 69.6113 142.527 68.5899C142.527 68.6041 142.527 68.6041 142.527 68.6183C142.527 69.4553 143.023 70.0937 143.945 70.0937C144.981 70.0937 145.775 69.583 146.485 68.7176C146.527 69.512 147.024 70.0937 147.903 70.0937C149.081 70.0937 149.96 69.4269 150.741 68.3487C150.741 69.356 151.166 70.0937 152.415 70.0937C153.337 70.0937 154.316 69.3702 155.039 68.5048C155.465 68.8169 155.961 68.973 156.5 68.973C157.649 68.973 158.557 68.1643 159.408 66.4052C159.508 66.1073 159.295 65.8519 159.011 65.8519ZM141.136 62.504C141.562 62.504 141.959 62.5891 141.959 63.0714C141.959 64.3624 139.661 65.2277 138.072 65.6817C138.696 64.3198 139.817 62.504 141.136 62.504ZM154.926 65.8519C154.727 65.8519 154.557 65.9513 154.514 66.1357C154.372 66.5755 154.344 67.3415 154.557 67.7955C153.918 68.6183 153.11 69.3134 152.4 69.3134C151.79 69.3134 151.549 68.8737 151.549 68.2494C151.549 66.4478 152.571 64.7454 153.067 63.9935C153.62 63.114 154.316 62.504 155.053 62.504C155.706 62.504 156.188 62.887 156.188 63.6247C156.188 64.4333 155.819 65.6392 155.223 66.7315C155.238 66.6038 155.238 66.462 155.294 66.3343C155.394 66.0789 155.195 65.8519 154.926 65.8519Z" fill="#F4F4F4"/>
<path d="M187.809 61.3832C187.767 60.8725 187.44 60.4753 186.887 60.4753C186.093 60.4753 185.483 61.2413 185.483 62.1635C185.483 62.5607 185.596 62.9579 185.766 63.3125C185.54 63.5253 185.341 63.7098 185.114 63.9651C185.057 64.0361 185.015 64.1212 185.015 64.1921C185.015 64.2914 185.057 64.4191 185.156 64.49C185.227 64.561 185.355 64.5751 185.44 64.5751C185.554 64.5751 185.667 64.5184 185.752 64.4333C185.866 64.2914 186.008 64.1495 186.135 64.0361C187.157 65.6675 187.44 66.1782 187.469 66.9443C187.426 68.3913 186.32 69.3276 184.759 69.3276C183.639 69.3276 182.66 68.5757 182.66 67.5117C182.688 67.1996 182.759 66.9159 182.872 66.6605C182.887 66.6322 182.901 66.5896 182.915 66.5612C183.213 65.9938 183.766 65.6249 184.476 65.6249C184.972 65.6249 185.454 66.0647 185.497 66.6605C185.497 66.8733 185.667 67.0294 185.908 67.0294C186.135 67.0294 186.32 66.8733 186.32 66.6605C186.277 65.6959 185.469 64.8872 184.476 64.8872C183.511 64.8872 182.773 65.2986 182.319 65.9938C182.291 66.0222 182.277 66.0505 182.262 66.0789L182.248 66.1356C182.206 66.2208 182.149 66.3059 182.121 66.4052C181.496 67.682 180.617 69.3276 179.496 69.3276C179.085 69.3276 178.914 69.1148 178.914 68.5899C178.914 67.8238 179.553 66.2917 180.248 64.5326L181.213 62.1918C181.312 61.979 181.156 61.6953 180.844 61.6953C180.674 61.6953 180.518 61.7804 180.461 61.9223C180.361 62.1493 180.248 62.4188 180.134 62.7167C179.794 62.0925 179.184 61.7946 178.375 61.7946C176.673 61.7946 175.183 64.0077 174.502 66.0931C173.595 67.8948 172.672 69.3418 171.296 69.3418C170.913 69.3418 170.686 69.0722 170.686 68.6041C170.686 68.3062 170.885 67.5685 171.268 66.4761C171.282 66.4477 171.296 66.4194 171.311 66.4052C171.325 66.3484 171.353 66.3201 171.353 66.2633C171.906 64.7879 172.46 63.4119 172.985 62.0216L173.992 59.3545C174.063 59.1559 173.949 58.9573 173.736 58.8864C173.524 58.8297 173.297 58.9148 173.212 59.1134L172.204 61.7804C171.651 63.2274 171.069 64.7028 170.544 66.0931C170.53 66.1073 170.53 66.1356 170.53 66.1498C169.566 68.1359 168.388 69.3418 166.53 69.3418C165.608 69.3418 164.983 68.675 164.983 67.6961C164.983 65.5966 167.04 62.5323 168.544 62.5323C169.126 62.5323 169.367 62.8302 169.367 63.4402C169.367 64.1354 168.899 64.4333 168.899 64.6886C168.899 64.9156 169.055 65.0433 169.31 65.0433C169.75 65.0433 170.176 64.2347 170.176 63.4544C170.176 62.4897 169.637 61.8088 168.544 61.8088C166.586 61.8088 164.175 64.9582 164.175 67.6961C164.175 69.129 165.097 70.0937 166.501 70.0937C167.906 70.0937 168.984 69.5829 169.878 68.6041V68.6183C169.878 69.4553 170.374 70.0937 171.296 70.0937C172.474 70.0937 173.353 69.4269 174.134 68.3487C174.176 69.3276 174.673 70.0937 175.708 70.0937C176.531 70.0937 177.34 69.5971 178.12 68.6183C178.12 69.4694 178.588 70.0937 179.51 70.0937C180.574 70.0937 181.383 69.2708 182.007 68.3062C182.376 69.3418 183.482 70.0937 184.788 70.0937C186.731 70.0937 188.277 68.8878 188.306 66.9868C188.292 65.7952 187.767 65.1852 186.76 63.497C187.327 62.8586 187.809 62.0783 187.809 61.3832ZM175.666 69.3134C175.084 69.3134 174.914 68.8027 174.914 68.0366C174.956 66.3059 176.588 62.5323 178.361 62.5039C179.056 62.5039 179.553 62.9721 179.595 63.7807L179.127 64.9014C178.361 66.6889 177.226 69.3134 175.666 69.3134ZM186.291 62.1351C186.291 61.8939 186.348 61.5676 186.575 61.369C186.774 61.1988 186.987 61.142 186.987 61.3832C186.987 61.7662 186.703 62.3053 186.391 62.7025C186.334 62.5039 186.291 62.3337 186.291 62.1351Z" fill="#F4F4F4"/>
<path d="M195.229 61.383C195.187 60.8723 194.86 60.4751 194.307 60.4751C193.513 60.4751 192.903 61.2412 192.903 62.1633C192.903 62.5605 193.016 62.9577 193.186 63.3124C192.959 63.5252 192.761 63.7096 192.534 63.965C192.477 64.0359 192.435 64.121 192.435 64.1919C192.435 64.2912 192.477 64.4189 192.576 64.4899C192.647 64.5608 192.775 64.575 192.86 64.575C192.974 64.575 193.087 64.5182 193.172 64.4331C193.286 64.2912 193.428 64.1494 193.555 64.0359C194.577 65.6673 194.86 66.178 194.889 66.9441C194.846 68.3911 193.74 69.3274 192.179 69.3274C191.058 69.3274 190.08 68.5755 190.08 67.5116C190.151 66.4476 190.846 65.6389 191.91 65.6389C192.406 65.6389 192.888 66.0787 192.931 66.6746C192.931 66.8874 193.101 67.0434 193.342 67.0434C193.569 67.0434 193.754 66.8874 193.754 66.6746C193.711 65.7099 192.903 64.9013 191.91 64.9013C190.363 64.9013 189.413 65.9369 189.285 67.5116C189.285 68.9302 190.59 70.0651 192.193 70.0651C194.137 70.0651 195.683 68.8593 195.712 66.9583C195.697 65.7666 195.173 65.1566 194.165 63.4684C194.747 62.8584 195.229 62.0782 195.229 61.383ZM193.711 62.1349C193.711 61.8937 193.768 61.5675 193.995 61.3688C194.194 61.1986 194.406 61.1419 194.406 61.383C194.406 61.7661 194.123 62.3051 193.811 62.7024C193.74 62.5038 193.711 62.3335 193.711 62.1349Z" fill="#F4F4F4"/>
<path d="M203.231 57.2123C203.018 57.1414 202.791 57.2407 202.734 57.4393L199.003 67.0719C198.932 67.2705 199.017 67.4691 199.23 67.54C199.443 67.6109 199.67 67.5116 199.755 67.313L203.486 57.6805C203.557 57.496 203.443 57.2832 203.231 57.2123Z" fill="#F4F4F4"/>
<path d="M198.478 68.9868C198.109 68.9868 197.825 69.2706 197.825 69.5968C197.825 69.9231 198.109 70.1927 198.478 70.1927C198.847 70.1927 199.159 69.9231 199.159 69.5968C199.159 69.2706 198.847 68.9868 198.478 68.9868Z" fill="#F4F4F4"/>
</svg>
