<svg width="69" height="69" viewBox="0 0 69 69" fill="none" xmlns="http://www.w3.org/2000/svg">
<path d="M14.5159 39.675C13.3838 39.1284 12.1203 38.8125 10.7812 38.8125C6.02564 38.8125 2.15625 42.6819 2.15625 47.4375C2.15625 52.1931 6.02564 56.0625 10.7812 56.0625C13.7655 56.0625 16.3994 54.538 17.9486 52.2276L26.096 56.3062C25.9559 56.9218 25.875 57.5611 25.875 58.2188C25.875 62.9744 29.7444 66.8438 34.5 66.8438C39.2556 66.8438 43.125 62.9744 43.125 58.2188C43.125 56.4312 42.5784 54.7698 41.6426 53.3909L53.0912 41.4205C54.5272 42.4857 56.2975 43.125 58.2188 43.125C62.9744 43.125 66.8438 39.2556 66.8438 34.5C66.8438 29.7444 62.9744 25.875 58.2188 25.875C56.2285 25.875 54.4 26.5585 52.9381 27.6949L41.3051 16.0619C42.4415 14.6 43.125 12.7715 43.125 10.7812C43.125 6.02564 39.2556 2.15625 34.5 2.15625C29.7444 2.15625 25.875 6.02564 25.875 10.7812C25.875 11.4368 25.9548 12.0739 26.0949 12.6885L18.4489 15.4743C17.015 12.6917 14.1202 10.7812 10.7812 10.7812C6.02564 10.7812 2.15625 14.6506 2.15625 19.4062C2.15625 24.1619 6.02564 28.0312 10.7812 28.0312C12.0082 28.0312 13.1736 27.7703 14.2312 27.3057L18.1998 33.9847L14.5159 39.675ZM10.7812 53.9062C7.21373 53.9062 4.3125 51.005 4.3125 47.4375C4.3125 43.87 7.21373 40.9688 10.7812 40.9688C14.3488 40.9688 17.25 43.87 17.25 47.4375C17.25 51.005 14.3488 53.9062 10.7812 53.9062ZM18.9092 50.2956C19.2251 49.3997 19.4062 48.4402 19.4062 47.4375C19.4062 44.7929 18.2074 42.4253 16.3282 40.8426L19.4289 36.0536L28.7773 51.7845C27.9903 52.4853 27.3315 53.3241 26.8432 54.2674L18.9092 50.2956ZM34.5 19.4062C36.4902 19.4062 38.3187 18.7227 39.7807 17.5864L51.4147 29.2204C50.7172 30.1174 50.1953 31.1535 49.8945 32.2812L43.1218 31.3497C43.1207 31.3217 43.125 31.2937 43.125 31.2656C43.125 26.51 39.2556 22.6406 34.5 22.6406C31.5158 22.6406 28.8808 24.1651 27.3326 26.4755L26.0464 25.833L30.7665 18.5438C31.8974 19.0904 33.161 19.4062 34.5 19.4062ZM35.5781 49.6681V39.8152C39.082 39.3753 41.9326 36.8288 42.8253 33.4844L49.5981 34.4159C49.5981 34.4439 49.5938 34.472 49.5938 34.5C49.5938 36.5592 50.3204 38.4492 51.529 39.9338L40.2087 51.7705C38.9397 50.646 37.343 49.8902 35.5781 49.6681ZM34.5 24.7969C38.0675 24.7969 40.9688 27.6981 40.9688 31.2656C40.9688 34.8331 38.0675 37.7344 34.5 37.7344C30.9325 37.7344 28.0312 34.8331 28.0312 31.2656C28.0312 27.6981 30.9325 24.7969 34.5 24.7969ZM26.372 28.4075C26.0561 29.3034 25.875 30.263 25.875 31.2656C25.875 35.6558 29.1741 39.2826 33.4219 39.8162V49.6692C32.3998 49.7975 31.4349 50.1037 30.5562 50.5576L20.7367 34.0332L24.867 27.655L26.372 28.4075ZM34.5 64.6875C30.9325 64.6875 28.0312 61.7863 28.0312 58.2188C28.0312 54.6512 30.9325 51.75 34.5 51.75C38.0675 51.75 40.9688 54.6512 40.9688 58.2188C40.9688 61.7863 38.0675 64.6875 34.5 64.6875ZM58.2188 28.0312C61.7863 28.0312 64.6875 30.9325 64.6875 34.5C64.6875 38.0675 61.7863 40.9688 58.2188 40.9688C54.6512 40.9688 51.75 38.0675 51.75 34.5C51.75 30.9325 54.6512 28.0312 58.2188 28.0312ZM34.5 4.3125C38.0675 4.3125 40.9688 7.21373 40.9688 10.7812C40.9688 14.3488 38.0675 17.25 34.5 17.25C30.9325 17.25 28.0312 14.3488 28.0312 10.7812C28.0312 7.21373 30.9325 4.3125 34.5 4.3125ZM26.8324 14.7132C27.3596 15.7363 28.0808 16.6409 28.953 17.3761L24.1058 24.8626L18.9092 22.2644C19.2251 21.3684 19.4062 20.4089 19.4062 19.4062C19.4062 18.7507 19.3265 18.1136 19.1863 17.499L26.8324 14.7132ZM4.3125 19.4062C4.3125 15.8387 7.21373 12.9375 10.7812 12.9375C14.3488 12.9375 17.25 15.8387 17.25 19.4062C17.25 22.9738 14.3488 25.875 10.7812 25.875C7.21373 25.875 4.3125 22.9738 4.3125 19.4062ZM16.0802 26.1974C16.8026 25.6324 17.4365 24.9597 17.9486 24.1964L22.9263 26.6847L19.5076 31.9643L16.0802 26.1974Z" fill="#8C63A9"/>
</svg>
